<svg enable-background="new 0 0 359 179" height="179" viewBox="0 0 359 179" width="359" xmlns="http://www.w3.org/2000/svg" xmlns:xlink="http://www.w3.org/1999/xlink"><linearGradient id="a" gradientUnits="userSpaceOnUse" x1="-228.5879" x2="255.8837" y1="-502.0566" y2="200.2248"><stop offset="0" stop-color="#fff"/><stop offset=".0849" stop-color="#f6fbfe"/><stop offset=".2238" stop-color="#ddf1fa"/><stop offset=".3994" stop-color="#b5dff4"/><stop offset=".6049" stop-color="#7ec7ec"/><stop offset=".8326" stop-color="#38a9e2"/><stop offset="1" stop-color="#0091da"/></linearGradient><path d="m0 0h359v179h-359z" fill="url(#a)"/><g fill="#fff"><path d="m236.753 84.929c-7.315 0-16.573 3.477-21.344 7.813v-26.174l-21.162 7.604v63.551l21.162-8.346v-27.189c3.085-2.496 6.876-4.019 9.817-4.019 4.91 0 7.435 2.282 7.435 6.946v17.46l21.166-8.349v-10.306c0-13.236-5.222-18.991-17.074-18.991z"/><path d="m226.637 133.01h-3.123v5.188h-2.994v-12.513h2.994v4.992h3.123v-4.992h2.993v12.513h-2.993z"/><path d="m234.594 133.509c0-1.827.475-2.85 1.475-2.85 1.004 0 1.476 1.022 1.476 2.85 0 1.83-.472 2.903-1.476 2.903-1.001 0-1.475-1.073-1.475-2.903zm-2.99 0c0 2.829 1.549 4.839 4.465 4.839 2.92 0 4.47-2.01 4.47-4.839 0-2.797-1.55-4.788-4.47-4.788-2.917 0-4.465 1.991-4.465 4.788z"/><path d="m249.047 137.956c-.839.213-1.699.394-2.613.394-3.673 0-4.492-3.006-4.492-4.711 0-2.865 1.68-4.914 4.711-4.914.949 0 1.464.232 2.302.45l-.144 2.134c-.533-.195-1.08-.394-1.682-.394-2.195 0-2.195 2.366-2.195 2.724 0 1.971 1.244 2.602 2.34 2.602.602 0 1.151-.215 1.681-.413z"/><path d="m250.441 124.758h2.885v5.49h.037c.328-1.038 1.384-1.523 2.425-1.523 2.101 0 2.792 1.504 2.792 3.366v6.107h-2.885v-5.75c0-1.162-.526-1.466-1.112-1.466-.929 0-1.257.789-1.257 1.981v5.233h-2.885z"/><path d="m266.266 131.205c-.769-.303-1.478-.501-2.317-.501-.753 0-1.083.358-1.083.685 0 .575.424.771 1.994 1.35.984.359 1.988.971 1.988 2.729 0 2.08-1.589 2.885-3.505 2.885-.843 0-2.12-.092-3.12-.449l.069-2.18c.692.411 1.567.647 2.37.647 1.359 0 1.449-.472 1.449-.884 0-.414-.754-.592-1.995-1.098-1.003-.414-1.988-1.203-1.988-2.875 0-1.006.731-2.793 3.56-2.793 1.19 0 2.176.217 2.647.379z"/><path d="m275.104 137.956c-.84.213-1.699.394-2.611.394-3.67 0-4.492-3.006-4.492-4.711 0-2.865 1.682-4.914 4.711-4.914.95 0 1.465.232 2.303.45l-.145 2.134c-.532-.195-1.081-.394-1.686-.394-2.19 0-2.19 2.366-2.19 2.724 0 1.971 1.243 2.602 2.337 2.602.607 0 1.15-.215 1.684-.413z"/><path d="m276.5 124.758h2.887v5.49h.037c.328-1.038 1.385-1.523 2.422-1.523 2.102 0 2.795 1.504 2.795 3.366v6.107h-2.884v-5.75c0-1.162-.528-1.466-1.112-1.466-.931 0-1.258.789-1.258 1.981v5.233h-2.887z"/><path d="m294.803 136.245c0 .896.021 1.472.074 1.953h-2.633c-.035-.412-.072-.935-.072-1.552h-.035c-.438 1.02-1.166 1.703-2.681 1.703-2.101 0-2.794-1.506-2.794-3.369v-6.108h2.888v5.748c0 1.161.527 1.466 1.108 1.466.93 0 1.26-.786 1.26-1.986v-5.228h2.885z"/><path d="m296.908 124.758h2.885v13.44h-2.885z"/><path d="m304.402 132.729c0-.498 0-2.283 1.476-2.283 1.187 0 1.495 1.104 1.495 2.283zm5.598.865c0-4.873-3.264-4.873-4.122-4.873-2.719 0-4.213 2.277-4.213 4.782 0 2.854 1.479 4.845 4.813 4.845.986 0 2.078-.199 3.01-.539l-.055-2.131c-.711.377-1.699.734-2.683.734-1.622 0-2.351-1.023-2.351-2.139h5.6v-.679z"/><path d="m194 141.43h1.939l2.49 7.739h.024l2.55-7.739h1.883v9.732h-1.199v-8.398h-.03l-2.813 8.398h-.912l-2.701-8.398h-.028v8.398h-1.203z"/><path d="m208.673 148.568c0 .988-.651 1.814-1.688 1.814-.821 0-1.221-.486-1.221-1.247 0-.827.668-1.487 2.073-1.487.327 0 .622 0 .836.028zm-3.339-2.939c.414-.445 1.124-.736 1.863-.736.496 0 .967.129 1.205.447.228.301.271.609.271 1.146v.328h-.694c-2.485 0-3.416 1.021-3.416 2.408 0 1.373.902 2.045 2.095 2.045 1.106 0 1.704-.51 2.032-1.051h.027l.07.944h1.082c-.027-.251-.057-.67-.057-1.086v-3.716c0-1.01-.314-1.438-.629-1.745-.229-.222-.867-.667-1.929-.667-.711 0-1.448.209-2.052.584z"/><path d="m212.427 147.607c0-1.787.492-2.715 1.583-2.715 1.092 0 1.586.928 1.586 2.715 0 1.789-.494 2.715-1.586 2.715-1.091 0-1.583-.926-1.583-2.715zm4.368-2.253c0-.436.045-.881.057-1.301h-1.158l-.043 1.026h-.027c-.396-.687-1.047-1.131-1.77-1.131-1.615 0-2.633 1.198-2.633 3.659s1.018 3.66 2.506 3.66c.793 0 1.431-.391 1.896-1.199h.027v1.115c0 1.221-.563 2.067-2.022 2.067-.649 0-1.474-.278-1.987-.61l-.06 1.185c.53.21 1.511.435 2.119.435 1.581 0 3.096-.822 3.096-2.781z"/><path d="m222.514 147.607c0 1.789-.498 2.715-1.588 2.715-1.088 0-1.585-.926-1.585-2.715 0-1.787.497-2.715 1.585-2.715 1.09.001 1.588.928 1.588 2.715zm1.201-6.912h-1.201v4.324h-.033c-.477-.75-1.018-1.071-1.836-1.071-1.487 0-2.504 1.198-2.504 3.659s1.017 3.66 2.504 3.66c1.047 0 1.584-.584 1.896-1.145h.027l.045 1.038h1.158c-.018-.433-.057-.884-.057-1.312v-9.153z"/><path d="m226.305 147.066c.027-1.674.711-2.235 1.482-2.235.955 0 1.428.745 1.428 2.235zm4.111.887v-.621c0-2.105-.917-3.384-2.557-3.384-1.812 0-2.805 1.418-2.805 3.659 0 2.244.993 3.66 2.918 3.66.727 0 1.471-.151 2.041-.414l-.06-1.06c-.412.295-1.071.589-1.669.589-1.325 0-1.98-.771-1.98-2.431z"/><path d="m232.889 147.607c0-1.787.493-2.715 1.582-2.715 1.09 0 1.586.928 1.586 2.715 0 1.789-.496 2.715-1.586 2.715-1.089 0-1.582-.926-1.582-2.715zm-1.201 2.245c0 .428-.045.879-.06 1.312h1.156l.045-1.038h.028c.313.561.852 1.145 1.898 1.145 1.484 0 2.501-1.199 2.501-3.66s-1.017-3.659-2.501-3.659c-.822 0-1.359.321-1.842 1.071h-.027v-4.323h-1.199v9.152z"/><path d="m243.852 149.628c0 .515.041 1.033.06 1.534h-1.158l-.044-1.057h-.027c-.387.812-1 1.162-1.841 1.162-1.272 0-2.13-.718-2.13-2.279v-4.937h1.199v4.589c0 1.129.431 1.616 1.199 1.616.941 0 1.541-.639 1.541-1.924v-4.281h1.201z"/><path d="m245.643 145.588c0-.518-.041-1.029-.06-1.535h1.159l.043 1.113h.027c.388-.868.996-1.218 2.065-1.218v1.163c-.142-.032-.298-.045-.457-.045-.924 0-1.578.777-1.578 2.334v3.762h-1.2v-5.574z"/><path d="m250.783 147.607c0-1.787.496-2.715 1.583-2.715 1.092 0 1.589.928 1.589 2.715 0 1.789-.497 2.715-1.589 2.715-1.087 0-1.583-.926-1.583-2.715zm4.371-2.253c0-.436.041-.881.057-1.301h-1.158l-.042 1.026h-.03c-.396-.687-1.047-1.131-1.768-1.131-1.615 0-2.632 1.198-2.632 3.659s1.017 3.66 2.505 3.66c.791 0 1.43-.391 1.895-1.199h.03v1.115c0 1.221-.565 2.067-2.024 2.067-.651 0-1.476-.278-1.989-.61l-.058 1.185c.526.21 1.51.435 2.117.435 1.586 0 3.1-.822 3.1-2.781v-6.125z"/><path d="m262.943 143.844c1.354 0 2.443 1.088 2.443 2.439 0 1.354-1.09 2.441-2.443 2.441s-2.442-1.089-2.442-2.441c0-1.351 1.091-2.439 2.442-2.439z"/><path d="m275.201 142.825c-.471-.282-1.081-.451-1.693-.451-.939 0-1.549.629-1.549 1.457 0 .628.254 1.022 1.676 1.835 1.538.867 2.051 1.72 2.051 2.841 0 1.55-.981 2.763-2.889 2.763-.795 0-1.55-.168-2.079-.414v-1.272c.571.338 1.312.63 1.896.63 1.123 0 1.762-.74 1.762-1.539 0-.754-.198-1.188-1.533-1.986-1.795-1.064-2.189-1.662-2.189-2.924 0-1.607 1.248-2.443 2.758-2.443.652 0 1.351.14 1.793.318v1.187h-.004z"/><path d="m280.467 151.091c-.281.093-.681.179-1.011.179-1.097 0-1.685-.435-1.685-1.688v-4.578h-1.154v-.951h1.154v-1.447l1.201-.352v1.799h1.493v.951h-1.493v4.201c0 .809.213 1.117.754 1.117.301 0 .513-.088.739-.184z"/><path d="m282.441 147.066c.027-1.674.711-2.235 1.483-2.235.952 0 1.427.745 1.427 2.235zm4.111.887v-.621c0-2.105-.917-3.384-2.558-3.384-1.809 0-2.805 1.418-2.805 3.659 0 2.244.996 3.66 2.92 3.66.727 0 1.47-.151 2.041-.414l-.059-1.06c-.414.295-1.072.589-1.668.589-1.326 0-1.982-.771-1.982-2.431z"/><path d="m287.932 145.588c0-.518-.045-1.029-.059-1.535h1.154l.045 1.059h.031c.383-.811.998-1.162 1.838-1.162 1.271 0 2.131.716 2.131 2.277v4.937h-1.202v-4.588c0-1.128-.431-1.621-1.198-1.621-.939 0-1.54.644-1.54 1.929v4.28h-1.2z"/><path d="m298.889 147.607c0 1.789-.496 2.715-1.586 2.715s-1.582-.926-1.582-2.715c0-1.787.492-2.715 1.582-2.715s1.586.928 1.586 2.715zm1.203-6.912h-1.203v4.324h-.027c-.481-.75-1.021-1.071-1.842-1.071-1.488 0-2.504 1.198-2.504 3.659s1.016 3.66 2.504 3.66c1.049 0 1.584-.584 1.897-1.145h.026l.043 1.038h1.158c-.013-.433-.054-.884-.054-1.312z"/><path d="m305.548 148.568c0 .988-.655 1.814-1.69 1.814-.823 0-1.223-.486-1.223-1.247 0-.827.667-1.487 2.073-1.487.326 0 .626 0 .84.028zm-3.343-2.939c.418-.445 1.124-.736 1.865-.736.498 0 .964.129 1.203.447.229.301.273.609.273 1.146v.328h-.699c-2.484 0-3.414 1.021-3.414 2.408 0 1.373.899 2.045 2.096 2.045 1.106 0 1.705-.51 2.031-1.051h.025l.075.944h1.081c-.028-.251-.061-.67-.061-1.086v-3.716c0-1.01-.312-1.438-.627-1.745-.226-.222-.865-.667-1.93-.667-.711 0-1.449.209-2.049.584z"/><path d="m308.547 140.695h1.201v10.467h-1.201z"/><path d="m272.245 79.937h-22.812v-6.537l5.112-3.384c1.661-1.115 5.341-4.071 6.957-5.571 1.39-1.285 2.104-2.656 2.104-4.07 0-1.798-1.166-2.999-2.914-2.999-2.243 0-3.41 1.583-3.721 4.926l-7.541-1.372c1.215-6.484 5.383-9.929 11.893-9.929 6.512 0 11.056 3.653 11.056 8.944 0 3.598-1.438 5.957-5.575 9.042-.949.728-1.353.987-5.887 3.984h11.643z"/></g></svg>