<?xml version="1.0" encoding="utf-8"?>
<!-- Generator: Adobe Illustrator 15.1.0, SVG Export Plug-In . SVG Version: 6.00 Build 0)  -->
<!DOCTYPE svg PUBLIC "-//W3C//DTD SVG 1.1//EN" "http://www.w3.org/Graphics/SVG/1.1/DTD/svg11.dtd" [
	<!ENTITY ns_extend "http://ns.adobe.com/Extensibility/1.0/">
	<!ENTITY ns_ai "http://ns.adobe.com/AdobeIllustrator/10.0/">
	<!ENTITY ns_graphs "http://ns.adobe.com/Graphs/1.0/">
	<!ENTITY ns_vars "http://ns.adobe.com/Variables/1.0/">
	<!ENTITY ns_imrep "http://ns.adobe.com/ImageReplacement/1.0/">
	<!ENTITY ns_sfw "http://ns.adobe.com/SaveForWeb/1.0/">
	<!ENTITY ns_custom "http://ns.adobe.com/GenericCustomNamespace/1.0/">
	<!ENTITY ns_adobe_xpath "http://ns.adobe.com/XPath/1.0/">
]>
<svg version="1.1" id="Ebene_1" xmlns:x="&ns_extend;" xmlns:i="&ns_ai;" xmlns:graph="&ns_graphs;"
	 xmlns="http://www.w3.org/2000/svg" xmlns:xlink="http://www.w3.org/1999/xlink" x="0px" y="0px" width="359px" height="179px"
	 viewBox="0 0 359 179" enable-background="new 0 0 359 179" xml:space="preserve">
<metadata>
	<sfw  xmlns="&ns_sfw;">
		<slices></slices>
		<sliceSourceBounds  height="179" width="359" x="140" y="151" bottomLeftOrigin="true"></sliceSourceBounds>
	</sfw>
</metadata>
<linearGradient id="SVGID_1_" gradientUnits="userSpaceOnUse" x1="-228.5879" y1="-502.0566" x2="255.8837" y2="200.2248">
	<stop  offset="0" style="stop-color:#FFFFFF"/>
	<stop  offset="0.0849" style="stop-color:#F6FBFE"/>
	<stop  offset="0.2238" style="stop-color:#DDF1FA"/>
	<stop  offset="0.3994" style="stop-color:#B5DFF4"/>
	<stop  offset="0.6049" style="stop-color:#7EC7EC"/>
	<stop  offset="0.8326" style="stop-color:#38A9E2"/>
	<stop  offset="1" style="stop-color:#0091DA"/>
</linearGradient>
<rect fill="url(#SVGID_1_)" width="359" height="179"/>
<g>
	<path fill="#FFFFFF" d="M236.753,84.929c-7.315,0-16.573,3.477-21.344,7.813V66.568l-21.162,7.604v63.551l21.162-8.346v-27.189
		c3.085-2.496,6.876-4.019,9.817-4.019c4.91,0,7.435,2.282,7.435,6.946v17.46l21.166-8.349V103.92
		C253.827,90.684,248.605,84.929,236.753,84.929z"/>
	<path fill="#FFFFFF" d="M226.637,133.01h-3.123v5.188h-2.994v-12.513h2.994v4.992h3.123v-4.992h2.993v12.513h-2.993V133.01z"/>
	<path fill="#FFFFFF" d="M234.594,133.509c0-1.827,0.475-2.85,1.475-2.85c1.004,0,1.476,1.022,1.476,2.85
		c0,1.83-0.472,2.903-1.476,2.903C235.068,136.412,234.594,135.339,234.594,133.509z M231.604,133.509
		c0,2.829,1.549,4.839,4.465,4.839c2.92,0,4.47-2.01,4.47-4.839c0-2.797-1.55-4.788-4.47-4.788
		C233.152,128.721,231.604,130.712,231.604,133.509z"/>
	<path fill="#FFFFFF" d="M249.047,137.956c-0.839,0.213-1.699,0.394-2.613,0.394c-3.673,0-4.492-3.006-4.492-4.711
		c0-2.865,1.68-4.914,4.711-4.914c0.949,0,1.464,0.232,2.302,0.45l-0.144,2.134c-0.533-0.195-1.08-0.394-1.682-0.394
		c-2.195,0-2.195,2.366-2.195,2.724c0,1.971,1.244,2.602,2.34,2.602c0.602,0,1.151-0.215,1.681-0.413L249.047,137.956z"/>
	<path fill="#FFFFFF" d="M250.441,124.758h2.885v5.49h0.037c0.328-1.038,1.384-1.523,2.425-1.523c2.101,0,2.792,1.504,2.792,3.366
		v6.107h-2.885v-5.75c0-1.162-0.526-1.466-1.112-1.466c-0.929,0-1.257,0.789-1.257,1.981v5.233h-2.885V124.758z"/>
	<path fill="#FFFFFF" d="M266.266,131.205c-0.769-0.303-1.478-0.501-2.317-0.501c-0.753,0-1.083,0.358-1.083,0.685
		c0,0.575,0.424,0.771,1.994,1.35c0.984,0.359,1.988,0.971,1.988,2.729c0,2.08-1.589,2.885-3.505,2.885
		c-0.843,0-2.12-0.092-3.12-0.449l0.069-2.18c0.692,0.411,1.567,0.647,2.37,0.647c1.359,0,1.449-0.472,1.449-0.884
		c0-0.414-0.754-0.592-1.995-1.098c-1.003-0.414-1.988-1.203-1.988-2.875c0-1.006,0.731-2.793,3.56-2.793
		c1.19,0,2.176,0.217,2.647,0.379L266.266,131.205z"/>
	<path fill="#FFFFFF" d="M275.104,137.956c-0.84,0.213-1.699,0.394-2.611,0.394c-3.67,0-4.492-3.006-4.492-4.711
		c0-2.865,1.682-4.914,4.711-4.914c0.95,0,1.465,0.232,2.303,0.45l-0.145,2.134c-0.532-0.195-1.081-0.394-1.686-0.394
		c-2.19,0-2.19,2.366-2.19,2.724c0,1.971,1.243,2.602,2.337,2.602c0.607,0,1.15-0.215,1.684-0.413L275.104,137.956z"/>
	<path fill="#FFFFFF" d="M276.5,124.758h2.887v5.49h0.037c0.328-1.038,1.385-1.523,2.422-1.523c2.102,0,2.795,1.504,2.795,3.366
		v6.107h-2.884v-5.75c0-1.162-0.528-1.466-1.112-1.466c-0.931,0-1.258,0.789-1.258,1.981v5.233H276.5V124.758z"/>
	<path fill="#FFFFFF" d="M294.803,136.245c0,0.896,0.021,1.472,0.074,1.953h-2.633c-0.035-0.412-0.072-0.935-0.072-1.552h-0.035
		c-0.438,1.02-1.166,1.703-2.681,1.703c-2.101,0-2.794-1.506-2.794-3.369v-6.108h2.888v5.748c0,1.161,0.527,1.466,1.108,1.466
		c0.93,0,1.26-0.786,1.26-1.986v-5.228h2.885V136.245L294.803,136.245z"/>
	<path fill="#FFFFFF" d="M296.908,124.758h2.885v13.44h-2.885V124.758z"/>
	<path fill="#FFFFFF" d="M304.402,132.729c0-0.498,0-2.283,1.476-2.283c1.187,0,1.495,1.104,1.495,2.283H304.402z M310,133.594
		c0-4.873-3.264-4.873-4.122-4.873c-2.719,0-4.213,2.277-4.213,4.782c0,2.854,1.479,4.845,4.813,4.845
		c0.986,0,2.078-0.199,3.01-0.539l-0.055-2.131c-0.711,0.377-1.699,0.734-2.683,0.734c-1.622,0-2.351-1.023-2.351-2.139h5.6V133.594
		z"/>
	<path fill="#FFFFFF" d="M194,141.43h1.939l2.49,7.739h0.024l2.55-7.739h1.883v9.732h-1.199v-8.398h-0.03l-2.813,8.398h-0.912
		l-2.701-8.398h-0.028v8.398H194V141.43z"/>
	<path fill="#FFFFFF" d="M208.673,148.568c0,0.988-0.651,1.814-1.688,1.814c-0.821,0-1.221-0.486-1.221-1.247
		c0-0.827,0.668-1.487,2.073-1.487c0.327,0,0.622,0,0.836,0.028V148.568z M205.334,145.629c0.414-0.445,1.124-0.736,1.863-0.736
		c0.496,0,0.967,0.129,1.205,0.447c0.228,0.301,0.271,0.609,0.271,1.146v0.328h-0.694c-2.485,0-3.416,1.021-3.416,2.408
		c0,1.373,0.902,2.045,2.095,2.045c1.106,0,1.704-0.51,2.032-1.051h0.027l0.07,0.944h1.082c-0.027-0.251-0.057-0.67-0.057-1.086
		v-3.716c0-1.01-0.314-1.438-0.629-1.745c-0.229-0.222-0.867-0.667-1.929-0.667c-0.711,0-1.448,0.209-2.052,0.584L205.334,145.629z"
		/>
	<path fill="#FFFFFF" d="M212.427,147.607c0-1.787,0.492-2.715,1.583-2.715c1.092,0,1.586,0.928,1.586,2.715
		c0,1.789-0.494,2.715-1.586,2.715C212.919,150.322,212.427,149.396,212.427,147.607z M216.795,145.354
		c0-0.436,0.045-0.881,0.057-1.301h-1.158l-0.043,1.026h-0.027c-0.396-0.687-1.047-1.131-1.77-1.131
		c-1.615,0-2.633,1.198-2.633,3.659s1.018,3.66,2.506,3.66c0.793,0,1.431-0.391,1.896-1.199h0.027v1.115
		c0,1.221-0.563,2.067-2.022,2.067c-0.649,0-1.474-0.278-1.987-0.61l-0.06,1.185c0.53,0.21,1.511,0.435,2.119,0.435
		c1.581,0,3.096-0.822,3.096-2.781L216.795,145.354L216.795,145.354z"/>
	<path fill="#FFFFFF" d="M222.514,147.607c0,1.789-0.498,2.715-1.588,2.715c-1.088,0-1.585-0.926-1.585-2.715
		c0-1.787,0.497-2.715,1.585-2.715C222.016,144.893,222.514,145.82,222.514,147.607z M223.715,140.695h-1.201v4.324h-0.033
		c-0.477-0.75-1.018-1.071-1.836-1.071c-1.487,0-2.504,1.198-2.504,3.659s1.017,3.66,2.504,3.66c1.047,0,1.584-0.584,1.896-1.145
		h0.027l0.045,1.038h1.158c-0.018-0.433-0.057-0.884-0.057-1.312V140.695z"/>
	<path fill="#FFFFFF" d="M226.305,147.066c0.027-1.674,0.711-2.235,1.482-2.235c0.955,0,1.428,0.745,1.428,2.235H226.305z
		 M230.416,147.953v-0.621c0-2.105-0.917-3.384-2.557-3.384c-1.812,0-2.805,1.418-2.805,3.659c0,2.244,0.993,3.66,2.918,3.66
		c0.727,0,1.471-0.151,2.041-0.414l-0.06-1.06c-0.412,0.295-1.071,0.589-1.669,0.589c-1.325,0-1.98-0.771-1.98-2.431
		L230.416,147.953L230.416,147.953z"/>
	<path fill="#FFFFFF" d="M232.889,147.607c0-1.787,0.493-2.715,1.582-2.715c1.09,0,1.586,0.928,1.586,2.715
		c0,1.789-0.496,2.715-1.586,2.715C233.382,150.322,232.889,149.396,232.889,147.607z M231.688,149.852
		c0,0.428-0.045,0.879-0.06,1.312h1.156l0.045-1.038h0.028c0.313,0.561,0.852,1.145,1.898,1.145c1.484,0,2.501-1.199,2.501-3.66
		s-1.017-3.659-2.501-3.659c-0.822,0-1.359,0.321-1.842,1.071h-0.027v-4.323h-1.199V149.852L231.688,149.852z"/>
	<path fill="#FFFFFF" d="M243.852,149.628c0,0.515,0.041,1.033,0.06,1.534h-1.158l-0.044-1.057h-0.027
		c-0.387,0.812-1,1.162-1.841,1.162c-1.272,0-2.13-0.718-2.13-2.279v-4.937h1.199v4.589c0,1.129,0.431,1.616,1.199,1.616
		c0.941,0,1.541-0.639,1.541-1.924v-4.281h1.201V149.628L243.852,149.628z"/>
	<path fill="#FFFFFF" d="M245.643,145.588c0-0.518-0.041-1.029-0.06-1.535h1.159l0.043,1.113h0.027
		c0.388-0.868,0.996-1.218,2.065-1.218v1.163c-0.142-0.032-0.298-0.045-0.457-0.045c-0.924,0-1.578,0.777-1.578,2.334v3.762h-1.2
		V145.588L245.643,145.588z"/>
	<path fill="#FFFFFF" d="M250.783,147.607c0-1.787,0.496-2.715,1.583-2.715c1.092,0,1.589,0.928,1.589,2.715
		c0,1.789-0.497,2.715-1.589,2.715C251.279,150.322,250.783,149.396,250.783,147.607z M255.154,145.354
		c0-0.436,0.041-0.881,0.057-1.301h-1.158l-0.042,1.026h-0.03c-0.396-0.687-1.047-1.131-1.768-1.131
		c-1.615,0-2.632,1.198-2.632,3.659s1.017,3.66,2.505,3.66c0.791,0,1.43-0.391,1.895-1.199h0.03v1.115
		c0,1.221-0.565,2.067-2.024,2.067c-0.651,0-1.476-0.278-1.989-0.61l-0.058,1.185c0.526,0.21,1.51,0.435,2.117,0.435
		c1.586,0,3.1-0.822,3.1-2.781v-6.125H255.154z"/>
	<path fill="#FFFFFF" d="M262.943,143.844c1.354,0,2.443,1.088,2.443,2.439c0,1.354-1.09,2.441-2.443,2.441
		c-1.353,0-2.442-1.089-2.442-2.441C260.501,144.932,261.592,143.844,262.943,143.844z"/>
	<path fill="#FFFFFF" d="M275.201,142.825c-0.471-0.282-1.081-0.451-1.693-0.451c-0.939,0-1.549,0.629-1.549,1.457
		c0,0.628,0.254,1.022,1.676,1.835c1.538,0.867,2.051,1.72,2.051,2.841c0,1.55-0.981,2.763-2.889,2.763
		c-0.795,0-1.55-0.168-2.079-0.414v-1.272c0.571,0.338,1.312,0.63,1.896,0.63c1.123,0,1.762-0.74,1.762-1.539
		c0-0.754-0.198-1.188-1.533-1.986c-1.795-1.064-2.189-1.662-2.189-2.924c0-1.607,1.248-2.443,2.758-2.443
		c0.652,0,1.351,0.14,1.793,0.318v1.187H275.201z"/>
	<path fill="#FFFFFF" d="M280.467,151.091c-0.281,0.093-0.681,0.179-1.011,0.179c-1.097,0-1.685-0.435-1.685-1.688v-4.578h-1.154
		v-0.951h1.154v-1.447l1.201-0.352v1.799h1.493v0.951h-1.493v4.201c0,0.809,0.213,1.117,0.754,1.117
		c0.301,0,0.513-0.088,0.739-0.184L280.467,151.091L280.467,151.091z"/>
	<path fill="#FFFFFF" d="M282.441,147.066c0.027-1.674,0.711-2.235,1.483-2.235c0.952,0,1.427,0.745,1.427,2.235H282.441z
		 M286.552,147.953v-0.621c0-2.105-0.917-3.384-2.558-3.384c-1.809,0-2.805,1.418-2.805,3.659c0,2.244,0.996,3.66,2.92,3.66
		c0.727,0,1.47-0.151,2.041-0.414l-0.059-1.06c-0.414,0.295-1.072,0.589-1.668,0.589c-1.326,0-1.982-0.771-1.982-2.431
		L286.552,147.953L286.552,147.953z"/>
	<path fill="#FFFFFF" d="M287.932,145.588c0-0.518-0.045-1.029-0.059-1.535h1.154l0.045,1.059h0.031
		c0.383-0.811,0.998-1.162,1.838-1.162c1.271,0,2.131,0.716,2.131,2.277v4.937h-1.202v-4.588c0-1.128-0.431-1.621-1.198-1.621
		c-0.939,0-1.54,0.644-1.54,1.929v4.28h-1.2V145.588L287.932,145.588z"/>
	<path fill="#FFFFFF" d="M298.889,147.607c0,1.789-0.496,2.715-1.586,2.715s-1.582-0.926-1.582-2.715
		c0-1.787,0.492-2.715,1.582-2.715S298.889,145.82,298.889,147.607z M300.092,140.695h-1.203v4.324h-0.027
		c-0.481-0.75-1.021-1.071-1.842-1.071c-1.488,0-2.504,1.198-2.504,3.659s1.016,3.66,2.504,3.66c1.049,0,1.584-0.584,1.897-1.145
		h0.026l0.043,1.038h1.158c-0.013-0.433-0.054-0.884-0.054-1.312L300.092,140.695L300.092,140.695z"/>
	<path fill="#FFFFFF" d="M305.548,148.568c0,0.988-0.655,1.814-1.69,1.814c-0.823,0-1.223-0.486-1.223-1.247
		c0-0.827,0.667-1.487,2.073-1.487c0.326,0,0.626,0,0.84,0.028V148.568z M302.205,145.629c0.418-0.445,1.124-0.736,1.865-0.736
		c0.498,0,0.964,0.129,1.203,0.447c0.229,0.301,0.273,0.609,0.273,1.146v0.328h-0.699c-2.484,0-3.414,1.021-3.414,2.408
		c0,1.373,0.899,2.045,2.096,2.045c1.106,0,1.705-0.51,2.031-1.051h0.025l0.075,0.944h1.081c-0.028-0.251-0.061-0.67-0.061-1.086
		v-3.716c0-1.01-0.312-1.438-0.627-1.745c-0.226-0.222-0.865-0.667-1.93-0.667c-0.711,0-1.449,0.209-2.049,0.584L302.205,145.629z"
		/>
	<path fill="#FFFFFF" d="M308.547,140.695h1.201v10.467h-1.201V140.695z"/>
	<path fill="#FFFFFF" d="M272.245,79.937h-22.812V73.4l5.112-3.384c1.661-1.115,5.341-4.071,6.957-5.571
		c1.39-1.285,2.104-2.656,2.104-4.07c0-1.798-1.166-2.999-2.914-2.999c-2.243,0-3.41,1.583-3.721,4.926l-7.541-1.372
		c1.215-6.484,5.383-9.929,11.893-9.929c6.512,0,11.056,3.653,11.056,8.944c0,3.598-1.438,5.957-5.575,9.042
		c-0.949,0.728-1.353,0.987-5.887,3.984h11.643L272.245,79.937z"/>
</g>
</svg>
