<svg height="1417.3228" width="1417.3228" xmlns="http://www.w3.org/2000/svg"><g stroke="#000" stroke-linecap="round" transform="translate(-44.025054 394.69658)"><g fill="none" stroke-width="8"><path d="m1149.3915 859.98247a674.91496 506.18622 54 1 0 -793.41011-1092.03534 674.91496 506.18622 54 1 0 793.41011 1092.03534z"/><path d="m752.68645-360.95016a506.18622 674.91496 0 1 0 0 1349.82991 506.18622 674.91496 0 1 0 0-1349.82991z"/><path d="m1394.5687 522.52499a674.91496 506.18622 18 1 0 -1283.76452-417.12039 674.91496 506.18622 18 1 0 1283.76452 417.12039z"/><path d="m1394.5687 105.4046a506.18622 674.91496 72 1 0 -1283.76452 417.12039 506.18622 674.91496 72 1 0 1283.76452-417.12039z"/><path d="m1149.3915-232.05287a506.18622 674.91496 36 1 0 -793.41011 1092.03534 506.18622 674.91496 36 1 0 793.41011-1092.03534z"/></g><path d="m634.57631 246.4733h371.20319v134.98299h-371.20319v134.983h371.20319v134.98299h-506.18618v-674.914964h506.18618v134.982994h-371.20319z" stroke-width="1.1"/></g></svg>