<svg enable-background="new 0 0 258 72" height="72" viewBox="0 0 258 72" width="258" xmlns="http://www.w3.org/2000/svg"><g fill="#179c7d"><path d="m0 41.697c9.874-5.083 24.338-13.302 41.507-25.317v-4.033c-15.111 9.886-30.476 17.824-41.507 23.075z"/><path d="m0 29.654c10.994-4.479 26.36-11.399 41.507-20.408v-1.991c-14.236 7.062-29.027 11.482-41.507 14.238z"/><path d="m41.507 41.717v-20.285c-9.45 7.966-18.809 14.864-26.67 20.285z"/><path d="m9.53 41.717c7.465-4.432 16.526-10.215 25.55-16.974 2.105-1.578 4.255-3.203 6.428-4.883v-2.514c-13.357 10.013-26.989 18.36-37.639 24.371z"/><path d="m0 18.542c12.14-2.135 26.993-5.976 41.507-12.874v-2.261c-14.626 6.566-29.265 9.35-41.507 10.341z"/><path d="m0 0v11.62c.907-.056 1.831-.121 2.775-.194 10.093-.776 23.867-2.56 38.732-8.987v-2.439z"/></g><path d="m0 11.62v2.128c12.242-.991 26.881-3.775 41.507-10.341v-.968c-14.864 6.427-28.639 8.211-38.732 8.987-.944.074-1.868.138-2.775.194z" fill="#fff"/><path d="m0 21.493c12.48-2.756 27.271-7.176 41.507-14.238v-1.586c-14.514 6.897-29.367 10.738-41.507 12.873z" fill="#fff"/><path d="m0 35.422c11.031-5.251 26.396-13.189 41.507-23.075v-3.101c-15.147 9.009-30.513 15.929-41.507 20.408z" fill="#fff"/><path d="m9.53 41.717h5.308c7.861-5.42 17.22-12.319 26.67-20.285v-1.572c-2.173 1.68-4.322 3.305-6.428 4.883-9.024 6.759-18.085 12.542-25.55 16.974z" fill="#fff"/><path d="m0 41.717h3.869c10.65-6.011 24.282-14.357 37.638-24.371v-.966c-17.169 12.016-31.633 20.234-41.507 25.317z" fill="#fff"/><path d="m243.927 41.697h5.338v-7.534c0-2.947 0-8.369 4.34-8.369.957 0 1.916.158 2.395.439v-5.378c-.562-.16-1.119-.16-1.635-.16-3.188 0-5.379 3.23-5.617 5.138h-.082v-4.658h-4.738v20.522zm-5.34-5.498c-1.994 1.114-4.223 2.073-6.816 2.073-3.301 0-5.613-1.873-5.857-5.185h14.184c0-7.172-2.148-12.391-9.762-12.391-6.371 0-9.52 4.9-9.52 10.838 0 6.738 3.941 10.641 10.719 10.641 2.871 0 5.096-.557 7.053-1.635v-4.341zm-12.674-6.777c.244-2.75 1.752-4.821 4.742-4.821s4.188 2.232 4.344 4.821zm-17.053 12.275h5.338v-16.62h4.66v-3.903h-4.66v-2.551c0-1.593.561-3.149 2.355-3.149 1.154 0 1.832.44 2.305.72l.441-4.424c-1.033-.239-2.549-.439-3.904-.439-4.225 0-6.535 2.869-6.535 6.973v2.87h-3.943v3.903h3.943zm-21.236-10.762c0-3.068 1.672-6.097 5.141-6.097 3.508 0 5.178 2.95 5.178 6.097 0 3.429-1.072 7.095-5.178 7.095-4.069-.001-5.141-3.708-5.141-7.095m-5.582.641c0 5.893 3.949 10.598 10.723 10.598 6.812 0 10.756-4.705 10.756-10.598 0-6.776-4.656-10.88-10.756-10.88-6.057-.001-10.723 4.104-10.723 10.88m-22.232 10.121h5.342v-10.045c0-2.628.836-6.814 4.703-6.814 3.426 0 3.463 3.389 3.463 5.898v10.961h5.336v-12.953c0-4.622-2.111-8.049-6.969-8.049-2.789 0-5.1 1.276-6.449 3.268h-.084v-12.152h-5.342zm-24.342 0h5.336v-10.045c0-2.628.84-6.814 4.703-6.814 3.426 0 3.465 3.389 3.465 5.898v10.961h5.344v-12.953c0-4.622-2.115-8.049-6.975-8.049-2.789 0-5.062.918-6.734 3.268h-.084v-2.789h-5.055zm-5.502-20.522h-5.342v10.042c0 2.627-.836 6.812-4.701 6.812-3.427 0-3.467-3.389-3.467-5.899v-10.955h-5.339v12.95c0 4.621 2.112 8.049 6.973 8.049 2.788 0 5.101-1.273 6.733-3.268h.081v2.791h5.061v-20.522zm-36.422 14.584c0-3.15 3.546-3.548 5.938-3.548h2.312c0 1.596-.239 3.067-1.117 4.226-.836 1.11-2.109 1.834-3.744 1.834-1.912 0-3.389-.761-3.389-2.512m-2.708-8.926c1.793-1.357 4.063-2.232 6.336-2.232 3.146 0 4.621 1.115 4.621 4.424h-2.949c-2.23 0-4.861.196-6.893 1.194-2.033.998-3.505 2.79-3.505 5.861 0 3.901 3.545 6.094 7.17 6.094 2.431 0 5.102-1.273 6.335-3.545h.081c.042.635.042 1.986.239 3.068h4.701c-.119-1.598-.198-3.033-.24-4.586-.039-1.513-.079-3.067-.079-5.14v-2.63c0-6.057-2.59-8.646-8.845-8.646-2.272 0-5.06.6-7.133 1.555zm-16.057 14.864h5.339v-7.534c0-2.947 0-8.369 4.342-8.369.957 0 1.913.158 2.393.439v-5.378c-.558-.16-1.115-.16-1.634-.16-3.187 0-5.379 3.23-5.618 5.138h-.08v-4.658h-4.742zm-19.285 0h5.579v-12.197h9.404v-4.383h-9.404v-6.852h9.882v-4.382h-15.461z"/></svg>