<svg enable-background="new 0 0 182 102" height="102" viewBox="0 0 182 102" width="182" xmlns="http://www.w3.org/2000/svg"><g enable-background="new" fill="#231f20"><path d="m102.97 11.439h5.327c1.197 0 2.189.209 2.977.628.787.418 1.37.982 1.748 1.691.377.709.565 1.507.565 2.393s-.185 1.678-.554 2.375-.939 1.248-1.71 1.654-1.739.609-2.903.609h-2.571v6.348h-2.879zm5.241 6.952c.836 0 1.457-.197 1.863-.591s.609-.918.609-1.574c0-.689-.207-1.243-.621-1.661s-1.023-.627-1.827-.627h-2.387v4.453z"/><path d="m116.595 26.467c-.669-.783-1.003-2.027-1.003-3.733v-7.356h2.781v7.356c0 .878.148 1.529.448 1.956s.712.64 1.236.64c.468 0 .894-.123 1.28-.369.385-.246.688-.59.91-1.033.221-.443.332-.943.332-1.501v-7.049h2.842v9.842c0 .5.014.882.043 1.144.028.263.1.521.215.775h-2.756c-.106-.205-.174-.408-.203-.609-.028-.2-.043-.453-.043-.756-.328.565-.795 1.019-1.402 1.359s-1.197.511-1.771.511c-1.272-.001-2.24-.394-2.909-1.177z"/><path d="m131.904 27.125c-.541-.262-1.004-.635-1.39-1.119l-.382 1.132h-1.968v-17.002h3.026v.283c-.09.098-.147.207-.172.325-.025.119-.033.318-.025.597v5.045c.361-.402.781-.714 1.262-.936.479-.222.965-.332 1.457-.332.902 0 1.73.224 2.486.671.754.446 1.354 1.113 1.802 1.999.446.886.671 1.96.671 3.223 0 1.378-.24 2.56-.721 3.543-.479.984-1.107 1.725-1.882 2.221s-1.593.745-2.454.745c-.598 0-1.168-.132-1.71-.395zm2.567-2.337c.389-.254.713-.664.971-1.23.259-.565.389-1.287.389-2.165 0-1.197-.223-2.161-.665-2.892-.442-.729-1.103-1.095-1.98-1.095-.837 0-1.415.334-1.735 1.003-.319.669-.479 1.572-.479 2.713 0 1.41.196 2.438.59 3.081.394.645.959.966 1.697.966.418 0 .821-.127 1.212-.381z"/><path d="m141.193 27.138v-2.189h3.224v-12.624h-3.063v-2.189h5.918v14.812h3.198v2.189h-9.277z"/><path d="m154.346 27.138v-2.264h2.829v-7.233h-2.694v-2.264h5.512v9.497h2.57v2.264zm3.174-14.032c-.271-.151-.484-.354-.641-.608-.155-.255-.233-.529-.233-.824 0-.484.164-.884.492-1.2.328-.315.751-.474 1.267-.474.304 0 .593.076.867.228.275.152.494.357.658.615.164.259.246.535.246.831 0 .295-.082.569-.246.824-.164.254-.383.457-.658.608-.274.152-.563.228-.867.228-.32 0-.616-.075-.885-.228z"/><path d="m172.404 25.12s.257-.123.77-.369.99-.644 1.434-1.193l1.636 1.895c-.632.714-1.343 1.241-2.134 1.581-.792.34-1.627.511-2.504.511-1.148 0-2.174-.267-3.076-.8s-1.605-1.27-2.109-2.208c-.504-.939-.757-1.995-.757-3.168 0-1.165.253-2.223.757-3.175.504-.951 1.209-1.701 2.115-2.251s1.938-.824 3.095-.824c.968 0 1.874.197 2.719.591s1.509.951 1.993 1.673l-1.574 1.846-.013.024c-.009 0-.013-.004-.013-.013-.344-.599-.763-1.043-1.254-1.335-.492-.291-1.112-.437-1.858-.437-.574 0-1.097.164-1.568.492s-.845.792-1.12 1.391c-.274.599-.412 1.287-.412 2.066 0 .746.129 1.398.388 1.956s.622.988 1.089 1.292c.468.304 1 .455 1.6.455zm2.006-5.918c0-.024.008-.036.025-.036.049 0 .131.058.246.172l-.05.062-.222-.185v-.013zm.418.222c0 .009-.004.013-.012.013-.025 0-.07-.033-.135-.099l.073-.086c.051.099.074.155.074.172z"/></g><g enable-background="new" fill="#231f20"><path d="m102.822 41.674h4.06c1.337 0 2.401.179 3.192.535.791.357 1.467.909 2.023 1.655 1.074 1.46 1.612 3.383 1.612 5.77 0 2.477-.577 4.386-1.729 5.727s-2.955 2.012-5.407 2.012h-3.752v-15.699zm3.703 13.483c1.468 0 2.561-.463 3.278-1.39s1.077-2.28 1.077-4.06c0-3.79-1.366-5.685-4.098-5.685h-1.218v11.134h.961z"/><path d="m124.05 46.386c.931.771 1.396 2.047 1.396 3.826v7.16h-2.694v-1.058c-.451.426-.994.761-1.63 1.002-.636.242-1.319.363-2.048.363-1.223 0-2.154-.302-2.793-.904-.641-.603-.96-1.421-.96-2.454 0-.837.265-1.551.794-2.141.529-.591 1.291-1.04 2.288-1.348.996-.308 2.188-.461 3.573-.461h.861c-.082-1.025-.332-1.757-.75-2.196-.418-.438-1.055-.658-1.907-.658-.541 0-1.103.142-1.686.425-.582.283-1.119.679-1.611 1.188l-1.439-1.858c.738-.672 1.532-1.181 2.38-1.525.85-.345 1.684-.517 2.504-.517 1.551-.001 2.791.385 3.722 1.156zm-2.085 8.353c.483-.524.775-1.354.873-2.485h-.566c-1.443 0-2.496.156-3.161.468-.664.312-.997.804-.997 1.477 0 .459.167.796.499 1.009s.789.319 1.372.319c.835-.001 1.495-.262 1.98-.788z"/><path d="m138.376 56.314c-.615.459-1.253.81-1.913 1.052-.66.241-1.376.362-2.146.362-1.223 0-2.157-.36-2.805-1.082s-.973-1.965-.973-3.728c0-.451.025-.947.074-1.489l.209-3.53h-2.547l.049-2.288h2.633l.16-2.756 3.101-.517.05.282c-.018.024-.059.085-.123.179-.066.095-.119.205-.16.332s-.066.277-.074.449l-.185 2.03h3.617l-.05 2.288h-3.616l-.271 3.346c-.041.574-.062 1.034-.062 1.378 0 1.042.127 1.77.382 2.184.255.415.652.622 1.193.622.509 0 .979-.099 1.415-.296.435-.196.914-.524 1.439-.984z"/><path d="m149.246 46.386c.93.771 1.396 2.047 1.396 3.826v7.16h-2.695v-1.058c-.451.426-.994.761-1.629 1.002-.637.242-1.319.363-2.049.363-1.223 0-2.153-.302-2.793-.904s-.959-1.421-.959-2.454c0-.837.264-1.551.793-2.141.529-.591 1.292-1.04 2.289-1.348.996-.308 2.188-.461 3.573-.461h.86c-.082-1.025-.332-1.757-.75-2.196-.418-.438-1.054-.658-1.906-.658-.541 0-1.104.142-1.686.425s-1.119.679-1.611 1.188l-1.439-1.858c.738-.672 1.531-1.181 2.38-1.525s1.684-.517 2.504-.517c1.55-.001 2.79.385 3.722 1.156zm-2.086 8.353c.484-.524.775-1.354.873-2.485h-.565c-1.443 0-2.497.156-3.161.468s-.997.804-.997 1.477c0 .459.167.796.499 1.009s.789.319 1.371.319c.836-.001 1.496-.262 1.98-.788z"/></g><g enable-background="new" fill="#231f20"><path d="m103.252 71.909h3.089v.283c-.091.099-.147.207-.173.326-.024.119-.033.317-.024.597v12.118h7.136v2.374h-10.027v-15.698z"/><path d="m124.05 76.621c.931.771 1.396 2.047 1.396 3.826v7.16h-2.694v-1.057c-.451.426-.994.761-1.63 1.002-.636.242-1.319.363-2.048.363-1.223 0-2.154-.302-2.793-.904-.641-.603-.96-1.421-.96-2.454 0-.837.265-1.551.794-2.141.529-.591 1.291-1.04 2.288-1.348.996-.308 2.188-.461 3.573-.461h.861c-.082-1.025-.332-1.757-.75-2.196-.418-.438-1.055-.658-1.907-.658-.541 0-1.103.142-1.686.425-.582.283-1.119.679-1.611 1.188l-1.439-1.858c.738-.672 1.532-1.181 2.38-1.525.85-.345 1.684-.517 2.504-.517 1.551-.001 2.791.385 3.722 1.155zm-2.085 8.354c.483-.524.775-1.354.873-2.485h-.566c-1.443 0-2.496.156-3.161.468-.664.312-.997.804-.997 1.477 0 .459.167.796.499 1.009s.789.319 1.372.319c.835-.001 1.495-.263 1.98-.788z"/><path d="m131.904 87.595c-.541-.262-1.004-.635-1.39-1.119l-.382 1.132h-1.968v-17.003h3.026v.283c-.09.098-.147.207-.172.325-.025.119-.033.318-.025.597v5.045c.361-.402.781-.714 1.262-.936.479-.222.965-.332 1.457-.332.902 0 1.73.224 2.486.671.754.446 1.354 1.113 1.802 1.999.446.886.671 1.96.671 3.223 0 1.378-.24 2.56-.721 3.543-.479.984-1.107 1.725-1.882 2.221s-1.593.745-2.454.745c-.598 0-1.168-.132-1.71-.394zm2.567-2.337c.389-.254.713-.664.971-1.23.259-.565.389-1.287.389-2.165 0-1.197-.223-2.161-.665-2.892-.442-.729-1.103-1.095-1.98-1.095-.837 0-1.415.334-1.735 1.003-.319.669-.479 1.572-.479 2.713 0 1.41.196 2.438.59 3.081.394.645.959.966 1.697.966.418 0 .821-.127 1.212-.381z"/></g><g fill="none" stroke="#000" stroke-linecap="round" stroke-linejoin="round" stroke-miterlimit="10"><path d="m1 26 21.651 12.5v25l-21.651-12.5z"/><path d="m1 51 21.651 12.5v25l-21.651-12.5z"/><path d="m22.651 63.5 21.65 12.5v25l-21.65-12.5z"/><path d="m44.301 26 21.651 12.5.003 25-21.654-12.5z"/><path d="m65.955 63.5v-25l21.647-12.5v25z"/><path d="m65.955 88.5v-25l21.647-12.5v25z"/><path d="m44.307 101v-25l21.648-12.5v25z"/><path d="m22.654 63.5v-25l21.647-12.5v25z"/><path d="m44.301 26 21.654-12.5-21.654-12.5-21.65 12.5z"/><path d="m44.301 76 21.654-12.5-21.654-12.5-21.65 12.5z"/><path d="m22.651 38.5 21.653-12.5-21.653-12.5-21.648 12.5z"/><path d="m65.955 38.5 21.653-12.5-21.653-12.5-21.651 12.5z"/></g></svg>