<svg version="1.1" class="logo1" xmlns="http://www.w3.org/2000/svg" xmlns:xlink="http://www.w3.org/1999/xlink" x="0px" y="0px" width="16.25em" height="5.9375em" viewBox="0 0 303.5 95" enable-background="new 0 0 303.5 95" xml:space="preserve" style="width: 18.9688em; height: 5.9375em;">
               <path class="logo1_symbol logo1_fill" fill="#BB4540" d="M31.561,35.609l8.342,4.815l0.121-0.761c0.153-0.979,0.185-1.884,0.106-2.707L31.561,35.609z"></path>
               <path class="logo1_symbol logo1_fill" fill="#BB4540" d="M37.45,55.996l-14.521,8.38l2.739,2.214c1.433,1.158,2.857,1.823,4.182,2.03
                  c0.984-0.536,1.958-1.365,2.872-2.494l3.889-4.811L37.45,55.996z"></path>
               <path class="logo1_symbol logo1_fill" fill="#BB4540" d="M17.171,78.366c-2.799-1.985-5.1-4.824-6.693-8.359L0.142,61.65c0.516,5.2,3.138,11.115,8.895,14.405
                  C13.149,78.405,17.171,78.366,17.171,78.366z"></path>
               <path class="logo1_symbol logo1_fill" fill="#BB4540" d="M17.732,16.625c-3.055,0-6.017,0.765-8.696,2.319c-6.723,3.901-8.325,10.666-8.672,12.844
                  c0,0,1.223-0.79,1.876-1.146c0.493-0.904,1.071-1.769,1.734-2.587c3.455-4.274,8.606-6.577,14.485-6.577
                  c1.217,0,2.467,0.098,3.736,0.299l1.779,0.279l2.693-1.038c0.866-0.331,1.73-0.611,2.589-0.834l-0.96-0.555
                  C24.834,17.629,21.221,16.625,17.732,16.625"></path>
               <path class="logo1_symbol logo1_fill" fill="#D28380" d="M18.484,33.684c-2.243,0.002-3.969,0.749-5.017,2.044c-0.807,1-1.212,2.325-1.139,3.888l12.98-4.992
                  l-5.012-0.789C19.662,33.735,19.056,33.684,18.484,33.684"></path>
               <path class="logo1_symbol logo1_fill" fill="#D28380" d="M39.902,40.422L37.45,55.996l4.722-2.729c5.493-3.171,5.495-8.361,0-11.534L39.902,40.422z"></path>
               <path class="logo1_symbol logo1_fill" fill="#D28380" d="M20.633,62.52l0.697,1.812c0.103,0.266,0.209,0.521,0.323,0.765c0.18-0.092,0.361-0.192,0.542-0.295
                  l0.734-0.425L20.633,62.52z"></path>
               <path class="logo1_symbol logo1_fill" fill="#A50700" d="M29.258,20.184c-0.859,0.226-1.722,0.503-2.588,0.836l-2.694,1.036l11.724,1.847L29.258,20.184z"></path>
               <path class="logo1_symbol logo1_fill" fill="#A50700" d="M2.241,30.642c-0.654,0.356-1.279,0.739-1.876,1.146c-0.163,0.91-0.273,1.851-0.326,2.814
                  c-0.025,0.45-0.037,0.906-0.037,1.365L0,59.034c0.001,0.892,0.051,1.762,0.142,2.616l10.336,8.356
                  c-0.19-0.42-0.37-0.853-0.538-1.293L1.653,47.187C-0.612,41.295-0.374,35.426,2.241,30.642"></path>
               <path class="logo1_symbol logo1_fill" fill="#A50700" d="M40.129,36.958c0.079,0.822,0.047,1.728-0.108,2.706l-0.119,0.761l2.271,1.31
                  c5.494,3.172,5.493,8.363,0,11.534l-4.725,2.729l-0.837,5.319l10.615-13.128c3.986-4.932,2.124-9.777-4.143-10.764L40.129,36.958z"></path>
               <path class="logo1_symbol logo1_fill" fill="#A50700" d="M22.93,64.376l-0.733,0.425c-0.182,0.104-0.363,0.203-0.543,0.295c1.3,2.812,3.309,4.262,5.48,4.262
                  c0.89,0,1.809-0.243,2.716-0.737c-1.324-0.207-2.748-0.872-4.18-2.03L22.93,64.376z"></path>
               <polygon class="logo1_symbol logo1_fill" fill="#F8BFC2" points="28.038,33.574 25.307,34.623 31.561,35.609 "></polygon>
               <path class="logo1_symbol logo1_fill" fill="#F8BFC2" d="M12.329,39.615l-0.121,0.048v16.044l8.425,6.812l-7.585-19.716C12.608,41.664,12.375,40.594,12.329,39.615"></path>
               <path class="logo1_symbol logo1_fill" fill="#EA4047" d="M18.461,21.478c-5.88,0-11.031,2.303-14.486,6.577c-0.662,0.818-1.241,1.683-1.734,2.587
                  c0.914-0.5,1.883-0.947,2.901-1.338l18.834-7.248l-1.778-0.279C20.927,21.576,19.678,21.478,18.461,21.478"></path>
               <path class="logo1_symbol logo1_fill" fill="#EA4047" d="M34.6,31.686c-1.073,0-2.265,0.234-3.546,0.728l-3.016,1.159l3.523,2.035l8.569,1.349
                  c-0.173-1.809-0.882-3.219-2-4.123C37.207,32.088,36.007,31.686,34.6,31.686"></path>
               <path class="logo1_symbol logo1_fill" fill="#EA4047" d="M12.208,39.663l-2.684,1.032c-5.919,2.276-6.727,7.405-1.793,11.394l4.478,3.618V39.663z"></path>
               <path class="logo1_symbol logo1_fill" fill="#EA4047" d="M36.611,61.315l-3.888,4.811c-0.914,1.129-1.888,1.958-2.874,2.494c0.302,0.047,0.6,0.069,0.89,0.069
                  c2.825,0,5.058-2.21,5.693-6.241L36.611,61.315z"></path>
               <path class="logo1_symbol logo1_fill" fill="#EA4047" d="M10.479,70.007c1.593,3.535,3.894,6.374,6.693,8.359c0.187,0.005,0.375,0.009,0.564,0.009
                  c1.977,0,3.178-0.273,3.178-0.273c-0.995-0.587-1.973-1.252-2.92-2.018L10.479,70.007z"></path>
               <path class="logo1_symbol logo1_fill" fill="#EA4047" d="M51.997,33.82c0.47,2.424,0.51,5.03,0.085,7.744l-3.48,22.075c-0.11,0.065-0.215,0.137-0.327,0.201
                  c6.497-3.75,10.222-9.707,10.224-16.338C58.499,42.299,56.192,37.455,51.997,33.82C51.997,33.82,51.976,33.802,51.997,33.82z"></path>
               <path class="logo1_symbol logo1_fill" fill="#F18084" d="M17.756,28.847c-3.282,0-5.549,2.615-5.549,7.12v3.696l0.122-0.048c-0.073-1.562,0.332-2.888,1.139-3.888
                  c1.047-1.297,2.773-2.042,5.017-2.042c0.572,0,1.178,0.049,1.813,0.149l5.012,0.789l2.729-1.049l-5.844-3.372
                  C20.603,29.281,19.095,28.847,17.756,28.847"></path>
               <path class="logo1_symbol logo1_fill" fill="#F18084" d="M12.207,55.707v3.327c0,3.173,1.124,5.405,2.933,6.452c0.762,0.438,1.646,0.668,2.618,0.668
                  c1.186,0,2.503-0.34,3.896-1.059c-0.114-0.244-0.221-0.499-0.323-0.765l-0.697-1.812L12.207,55.707z"></path>
               <path class="logo1_symbol logo1_fill" fill="#E3000A" d="M23.976,22.056L5.142,29.303c-1.019,0.392-1.987,0.839-2.901,1.338c-2.614,4.784-2.853,10.654-0.588,16.545
                  l8.286,21.527c0.169,0.44,0.349,0.873,0.539,1.293l7.515,6.077c0.947,0.766,1.926,1.431,2.92,2.018
                  c0.942-0.161,1.886-0.393,2.829-0.695c0.006-0.002,0.011-0.002,0.018-0.006c0.01-0.002,0.022-0.006,0.032-0.009
                  c0.019-0.008,0.038-0.012,0.058-0.02c0.003-0.002,0.005-0.002,0.008-0.004c1.493-0.487,2.98-1.154,4.439-1.995L48.274,63.84
                  c0.112-0.064,0.218-0.136,0.329-0.201l3.478-22.075c0.425-2.714,0.387-5.32-0.084-7.744c-1.113-0.971-2.352-1.865-3.722-2.658
                  l-12.575-7.26L23.976,22.056z M12.207,39.663v-3.696c0-4.505,2.267-7.12,5.549-7.12c1.339,0,2.847,0.436,4.438,1.354l5.844,3.372
                  l3.016-1.16c1.28-0.494,2.474-0.728,3.546-0.728c1.407,0,2.607,0.4,3.529,1.146c1.117,0.906,1.828,2.316,2,4.126l2.954,0.466
                  c6.268,0.987,8.131,5.832,4.142,10.764L36.611,61.315l-0.179,1.133c-0.636,4.031-2.869,6.241-5.694,6.241
                  c-0.289,0-0.585-0.022-0.887-0.069c-0.909,0.494-1.828,0.737-2.718,0.737c-2.172,0-4.18-1.449-5.48-4.262
                  c-1.393,0.719-2.709,1.059-3.896,1.059c-0.972,0-1.855-0.229-2.618-0.668c-1.81-1.047-2.933-3.279-2.933-6.452v-3.327L7.73,52.089
                  c-4.934-3.988-4.126-9.117,1.793-11.394L12.207,39.663z"></path>
               <path fill="#E3000A" d="M81.173,31.268c0.154,0.528,0.324,1.123,0.51,1.785c0.187,0.662,0.385,1.347,0.597,2.055
                  c0.212,0.707,0.427,1.415,0.646,2.121c0.218,0.708,0.429,1.363,0.636,1.968c0.167-0.656,0.338-1.369,0.514-2.141
                  c0.174-0.771,0.339-1.569,0.493-2.391c0.155-0.823,0.308-1.643,0.456-2.459c0.149-0.817,0.288-1.605,0.417-2.364h3.126
                  c-0.453,2.238-0.974,4.507-1.562,6.809s-1.226,4.488-1.911,6.559h-2.753c-0.449-1.235-0.886-2.531-1.309-3.888
                  c-0.424-1.356-0.841-2.716-1.252-4.079c-0.413,1.363-0.824,2.723-1.236,4.079c-0.413,1.357-0.844,2.653-1.294,3.888H74.5
                  c-0.686-2.071-1.321-4.257-1.909-6.559c-0.587-2.302-1.107-4.571-1.559-6.809h3.26c0.129,0.759,0.272,1.547,0.427,2.364
                  c0.155,0.817,0.316,1.636,0.484,2.459c0.167,0.822,0.34,1.62,0.514,2.391c0.174,0.772,0.352,1.485,0.533,2.141
                  c0.232-0.63,0.458-1.299,0.677-2.005c0.219-0.708,0.433-1.415,0.638-2.123c0.206-0.707,0.396-1.389,0.57-2.044
                  c0.174-0.657,0.331-1.242,0.474-1.756H81.173z"></path>
               <polygon fill="#E3000A" points="90.477,43.209 90.477,29.841 99.504,29.841 99.504,32.368 93.485,32.368 93.485,34.991 
                  98.83,34.991 98.83,37.459 93.485,37.459 93.485,40.682 99.948,40.682 99.948,43.209 "></polygon>
               <rect x="102.166" y="29.841" fill="#E3000A" width="3.01" height="13.368"></rect>
               <path fill="#E3000A" d="M117.231,43.209c-0.861-1.531-1.793-3.041-2.796-4.533c-1.004-1.492-2.071-2.9-3.204-4.225v8.758h-2.97
                  V29.841h2.45c0.424,0.424,0.893,0.946,1.409,1.562c0.514,0.617,1.038,1.277,1.571,1.977c0.535,0.702,1.064,1.428,1.592,2.181
                  c0.527,0.751,1.021,1.475,1.485,2.169v-7.89h2.989v13.368H117.231z"></path>
               <path fill="#E3000A" d="M127.301,43.383c-0.734,0-1.464-0.024-2.19-0.068c-0.727-0.045-1.481-0.151-2.267-0.317V30.034
                  c0.617-0.116,1.292-0.203,2.026-0.26c0.732-0.058,1.414-0.087,2.045-0.087c0.849,0,1.629,0.062,2.342,0.184
                  c0.714,0.122,1.329,0.331,1.843,0.627c0.513,0.295,0.916,0.684,1.205,1.167c0.29,0.482,0.435,1.077,0.435,1.785
                  c0,1.067-0.516,1.909-1.544,2.525c0.85,0.323,1.428,0.759,1.736,1.313c0.309,0.552,0.463,1.175,0.463,1.871
                  c0,1.401-0.511,2.456-1.533,3.164C130.841,43.028,129.319,43.383,127.301,43.383z M125.777,35.087h1.466
                  c0.925,0,1.587-0.119,1.986-0.357c0.399-0.237,0.598-0.621,0.598-1.147c0-0.541-0.205-0.919-0.617-1.137
                  c-0.412-0.219-1.016-0.329-1.813-0.329c-0.257,0-0.533,0.003-0.83,0.009c-0.294,0.007-0.559,0.023-0.79,0.049V35.087z
                   M125.777,37.384v3.453c0.218,0.025,0.457,0.045,0.713,0.057c0.258,0.013,0.541,0.019,0.849,0.019c0.899,0,1.627-0.127,2.18-0.386
                  c0.554-0.256,0.831-0.732,0.831-1.427c0-0.617-0.232-1.058-0.696-1.321c-0.462-0.264-1.125-0.395-1.987-0.395H125.777z"></path>
               <polygon fill="#E3000A" points="135.808,43.209 135.808,29.841 144.836,29.841 144.836,32.368 138.816,32.368 138.816,34.991 
                  144.16,34.991 144.16,37.459 138.816,37.459 138.816,40.682 145.279,40.682 145.279,43.209 "></polygon>
               <path fill="#E3000A" d="M151.414,29.686c2.006,0,3.543,0.358,4.609,1.071c1.068,0.713,1.602,1.823,1.602,3.328
                  c0,0.938-0.215,1.7-0.647,2.286c-0.429,0.585-1.05,1.043-1.86,1.378c0.27,0.334,0.553,0.717,0.849,1.148
                  c0.296,0.432,0.588,0.881,0.878,1.351c0.289,0.47,0.569,0.958,0.839,1.466c0.271,0.508,0.521,1.006,0.752,1.495h-3.364
                  c-0.245-0.437-0.493-0.88-0.745-1.332c-0.252-0.449-0.51-0.887-0.774-1.311c-0.266-0.425-0.525-0.826-0.785-1.206
                  c-0.258-0.379-0.516-0.724-0.773-1.032h-1.486v4.881h-3.008V30.034c0.656-0.128,1.333-0.218,2.035-0.27
                  C150.232,29.713,150.861,29.686,151.414,29.686z M151.586,32.253c-0.217,0-0.414,0.006-0.588,0.019
                  c-0.173,0.012-0.337,0.026-0.492,0.038v3.627h0.85c1.131,0,1.94-0.141,2.43-0.424c0.489-0.282,0.733-0.764,0.733-1.447
                  c0-0.656-0.248-1.122-0.741-1.398C153.281,32.391,152.551,32.253,151.586,32.253z"></path>
               <path fill="#E3000A" d="M166.537,32.156c-1.402,0-2.414,0.389-3.038,1.166c-0.624,0.778-0.937,1.843-0.937,3.193
                  c0,0.655,0.078,1.25,0.231,1.785c0.155,0.533,0.388,0.993,0.695,1.378s0.694,0.684,1.157,0.896c0.463,0.213,1.003,0.319,1.621,0.319
                  c0.334,0,0.619-0.005,0.857-0.019c0.236-0.013,0.447-0.038,0.628-0.078v-4.648h3.01v6.617c-0.36,0.142-0.94,0.292-1.737,0.453
                  c-0.799,0.161-1.781,0.241-2.952,0.241c-1.003,0-1.913-0.154-2.729-0.462c-0.816-0.31-1.513-0.759-2.092-1.351
                  c-0.578-0.591-1.027-1.318-1.341-2.18c-0.316-0.861-0.474-1.845-0.474-2.951c0-1.12,0.175-2.109,0.521-2.971
                  c0.348-0.861,0.822-1.591,1.428-2.189c0.604-0.598,1.314-1.051,2.131-1.359c0.816-0.31,1.688-0.463,2.613-0.463
                  c0.631,0,1.2,0.042,1.708,0.125c0.508,0.083,0.946,0.18,1.312,0.289c0.367,0.109,0.67,0.221,0.907,0.338
                  c0.238,0.115,0.407,0.205,0.511,0.269l-0.867,2.412c-0.413-0.219-0.885-0.408-1.418-0.569
                  C167.748,32.236,167.166,32.156,166.537,32.156z"></path>
               <path fill="#E3000A" d="M184.283,43.479c-2.174,0-3.828-0.605-4.967-1.814c-1.138-1.208-1.707-2.925-1.707-5.15
                  c0-1.106,0.174-2.093,0.521-2.96c0.348-0.868,0.823-1.602,1.429-2.2c0.604-0.598,1.322-1.051,2.16-1.359
                  c0.836-0.31,1.742-0.463,2.721-0.463c0.564,0,1.078,0.042,1.543,0.125c0.462,0.083,0.867,0.18,1.213,0.289
                  c0.35,0.109,0.639,0.221,0.869,0.338c0.23,0.115,0.399,0.205,0.502,0.269l-0.869,2.431c-0.411-0.219-0.891-0.405-1.436-0.56
                  c-0.547-0.154-1.168-0.231-1.862-0.231c-0.463,0-0.917,0.077-1.36,0.231c-0.443,0.155-0.836,0.403-1.176,0.744
                  c-0.342,0.34-0.615,0.78-0.82,1.32c-0.205,0.541-0.309,1.196-0.309,1.967c0,0.618,0.068,1.193,0.203,1.727
                  c0.135,0.534,0.353,0.994,0.655,1.38c0.302,0.386,0.698,0.691,1.187,0.916c0.488,0.226,1.08,0.338,1.775,0.338
                  c0.437,0,0.829-0.025,1.177-0.077c0.347-0.052,0.655-0.113,0.926-0.184c0.271-0.071,0.508-0.151,0.713-0.242
                  c0.205-0.089,0.393-0.174,0.56-0.25l0.83,2.411c-0.425,0.258-1.022,0.489-1.795,0.694C186.193,43.376,185.3,43.479,184.283,43.479z"></path>
               <path fill="#E3000A" d="M200.197,43.209c-0.148-0.464-0.31-0.942-0.48-1.432c-0.172-0.489-0.342-0.977-0.512-1.463h-5.221
                  c-0.168,0.488-0.338,0.977-0.506,1.466c-0.172,0.491-0.329,0.967-0.477,1.428h-3.123c0.502-1.44,0.979-2.772,1.432-3.993
                  c0.451-1.222,0.893-2.373,1.324-3.454c0.433-1.08,0.858-2.105,1.277-3.075c0.419-0.972,0.855-1.919,1.307-2.846h2.853
                  c0.438,0.927,0.872,1.875,1.298,2.846c0.426,0.97,0.855,1.996,1.289,3.075c0.433,1.081,0.875,2.231,1.328,3.454
                  c0.451,1.221,0.93,2.553,1.434,3.993H200.197z M196.582,32.87c-0.068,0.193-0.166,0.458-0.295,0.793
                  c-0.131,0.334-0.276,0.72-0.441,1.158c-0.166,0.438-0.351,0.92-0.555,1.447c-0.203,0.526-0.411,1.079-0.622,1.656h3.823
                  c-0.205-0.579-0.404-1.134-0.594-1.662c-0.193-0.528-0.375-1.01-0.547-1.447c-0.173-0.439-0.324-0.825-0.455-1.158
                  C196.767,33.321,196.66,33.06,196.582,32.87z"></path>
               <path fill="#E3000A" d="M208.686,29.841c0.232,0.424,0.498,0.949,0.802,1.572c0.304,0.625,0.619,1.299,0.948,2.026
                  c0.329,0.727,0.654,1.469,0.977,2.228c0.322,0.759,0.625,1.473,0.91,2.141c0.283-0.668,0.587-1.382,0.908-2.141
                  c0.322-0.759,0.647-1.501,0.977-2.228c0.329-0.727,0.645-1.401,0.948-2.026c0.304-0.623,0.571-1.148,0.802-1.572h2.74
                  c0.129,0.888,0.247,1.881,0.355,2.98c0.109,1.1,0.207,2.244,0.289,3.433c0.085,1.19,0.162,2.383,0.233,3.579
                  c0.07,1.196,0.132,2.321,0.184,3.376h-2.933c-0.039-1.299-0.091-2.713-0.154-4.244c-0.065-1.53-0.162-3.074-0.289-4.63
                  c-0.232,0.54-0.49,1.138-0.775,1.794c-0.283,0.656-0.563,1.311-0.842,1.967c-0.277,0.655-0.545,1.282-0.803,1.88
                  s-0.477,1.109-0.657,1.535h-2.103c-0.182-0.425-0.4-0.937-0.658-1.535s-0.525-1.225-0.803-1.88c-0.279-0.656-0.56-1.312-0.842-1.967
                  c-0.285-0.657-0.541-1.254-0.774-1.794c-0.128,1.556-0.226,3.1-0.29,4.63c-0.063,1.53-0.115,2.945-0.154,4.244h-2.932
                  c0.051-1.055,0.113-2.18,0.182-3.376c0.072-1.196,0.148-2.389,0.232-3.579c0.084-1.189,0.18-2.333,0.291-3.433
                  c0.108-1.099,0.229-2.093,0.355-2.98H208.686z"></path>
               <path fill="#E3000A" d="M226.452,29.686c1.993,0,3.522,0.351,4.589,1.052c1.068,0.701,1.603,1.849,1.603,3.443
                  c0,1.606-0.54,2.768-1.62,3.481c-1.08,0.713-2.623,1.071-4.631,1.071h-0.943v4.476h-3.01V30.034c0.656-0.128,1.351-0.218,2.083-0.27
                  C225.256,29.713,225.898,29.686,226.452,29.686z M226.645,32.253c-0.219,0-0.434,0.006-0.646,0.019
                  c-0.211,0.012-0.395,0.026-0.549,0.038v3.858h0.943c1.043,0,1.826-0.141,2.354-0.424s0.792-0.81,0.792-1.582
                  c0-0.373-0.068-0.683-0.203-0.926c-0.135-0.245-0.328-0.441-0.58-0.589c-0.25-0.147-0.557-0.25-0.916-0.309
                  C227.48,32.281,227.082,32.253,226.645,32.253z"></path>
               <path fill="#E3000A" d="M240.09,43.479c-0.939,0-1.75-0.132-2.43-0.396c-0.683-0.263-1.244-0.63-1.689-1.099
                  c-0.443-0.469-0.77-1.029-0.983-1.679c-0.212-0.649-0.317-1.366-0.317-2.151v-8.313h3.008v8.063c0,0.541,0.062,1,0.184,1.379
                  c0.123,0.38,0.29,0.688,0.502,0.926c0.213,0.238,0.469,0.408,0.772,0.51c0.302,0.104,0.633,0.155,0.993,0.155
                  c0.733,0,1.328-0.224,1.784-0.675c0.456-0.45,0.685-1.215,0.685-2.295v-8.063h3.01v8.313c0,0.785-0.111,1.505-0.328,2.16
                  c-0.22,0.657-0.555,1.218-1.004,1.688c-0.45,0.47-1.021,0.833-1.717,1.091C241.865,43.35,241.041,43.479,240.09,43.479z"></path>
               <path fill="#E3000A" d="M252.145,40.913c0.427,0,0.775-0.035,1.053-0.106c0.276-0.07,0.497-0.167,0.665-0.289
                  c0.166-0.123,0.282-0.268,0.347-0.435s0.098-0.353,0.098-0.56c0-0.438-0.205-0.8-0.617-1.089s-1.118-0.601-2.122-0.936
                  c-0.437-0.154-0.874-0.331-1.312-0.531c-0.438-0.199-0.83-0.449-1.178-0.752c-0.346-0.302-0.631-0.668-0.849-1.099
                  c-0.22-0.431-0.327-0.955-0.327-1.572c0-0.616,0.115-1.174,0.346-1.668c0.232-0.495,0.561-0.916,0.985-1.264
                  c0.424-0.348,0.938-0.614,1.542-0.8c0.605-0.186,1.286-0.279,2.045-0.279c0.9,0,1.679,0.096,2.336,0.289
                  c0.654,0.193,1.195,0.405,1.619,0.636l-0.869,2.374c-0.372-0.193-0.787-0.365-1.243-0.512c-0.457-0.147-1.007-0.222-1.649-0.222
                  c-0.721,0-1.238,0.1-1.553,0.3c-0.314,0.198-0.473,0.504-0.473,0.916c0,0.245,0.057,0.451,0.174,0.618
                  c0.115,0.167,0.279,0.317,0.49,0.454c0.213,0.134,0.459,0.256,0.734,0.366c0.275,0.109,0.581,0.221,0.917,0.337
                  c0.694,0.258,1.299,0.512,1.813,0.763c0.514,0.25,0.941,0.543,1.282,0.877c0.341,0.335,0.593,0.727,0.762,1.177
                  c0.165,0.451,0.251,0.997,0.251,1.641c0,1.247-0.438,2.215-1.312,2.902c-0.874,0.688-2.191,1.033-3.955,1.033
                  c-0.59,0-1.124-0.036-1.6-0.107s-0.896-0.158-1.264-0.26c-0.366-0.103-0.682-0.212-0.945-0.329
                  c-0.264-0.115-0.486-0.224-0.665-0.328l0.849-2.392c0.398,0.219,0.891,0.414,1.475,0.589
                  C250.579,40.826,251.297,40.913,252.145,40.913z"></path>
               <polygon fill="#E3000A" points="81.237,51.162 81.237,52.781 77.032,52.781 77.032,64.528 75.16,64.528 75.16,52.781 70.955,52.781 
                  70.955,51.162 "></polygon>
               <polygon fill="#E3000A" points="83.204,64.528 83.204,51.162 91.363,51.162 91.363,52.762 85.075,52.762 85.075,56.736 
                  90.67,56.736 90.67,58.298 85.075,58.298 85.075,62.928 91.845,62.928 91.845,64.528 "></polygon>
               <path fill="#E3000A" d="M99.427,64.818c-0.938,0-1.794-0.155-2.565-0.462c-0.772-0.31-1.435-0.761-1.987-1.352
                  c-0.553-0.592-0.981-1.319-1.282-2.19c-0.303-0.865-0.454-1.86-0.454-2.979c0-1.119,0.17-2.111,0.511-2.979
                  c0.341-0.869,0.801-1.599,1.379-2.191c0.579-0.591,1.254-1.041,2.025-1.351c0.771-0.309,1.595-0.463,2.469-0.463
                  c0.554,0,1.052,0.039,1.495,0.117c0.444,0.076,0.831,0.166,1.158,0.27c0.328,0.103,0.595,0.206,0.8,0.309
                  c0.206,0.104,0.348,0.18,0.425,0.23l-0.539,1.542c-0.117-0.075-0.284-0.158-0.503-0.248c-0.219-0.09-0.466-0.181-0.742-0.27
                  c-0.277-0.09-0.579-0.165-0.907-0.224c-0.329-0.058-0.659-0.086-0.994-0.086c-0.707,0-1.344,0.123-1.909,0.365
                  c-0.566,0.244-1.049,0.6-1.447,1.062c-0.399,0.464-0.704,1.027-0.917,1.688c-0.212,0.662-0.318,1.405-0.318,2.229
                  c0,0.797,0.093,1.524,0.279,2.181s0.465,1.218,0.839,1.686c0.374,0.472,0.839,0.832,1.397,1.091
                  c0.561,0.258,1.213,0.386,1.959,0.386c0.861,0,1.575-0.088,2.141-0.27c0.565-0.183,0.99-0.341,1.273-0.481l0.482,1.541
                  c-0.09,0.067-0.25,0.146-0.482,0.241c-0.232,0.098-0.521,0.191-0.868,0.28c-0.347,0.09-0.753,0.166-1.215,0.231
                  C100.469,64.787,99.967,64.818,99.427,64.818z"></path>
               <polygon fill="#E3000A" points="114.049,51.162 115.92,51.162 115.92,64.528 114.049,64.528 114.049,58.357 107.511,58.357 
                  107.511,64.528 105.639,64.528 105.639,51.162 107.511,51.162 107.511,56.736 114.049,56.736 "></polygon>
               <path fill="#E3000A" d="M128.401,64.528c-0.285-0.476-0.608-1.009-0.975-1.601c-0.368-0.591-0.762-1.205-1.186-1.842
                  c-0.425-0.637-0.866-1.281-1.322-1.939c-0.458-0.654-0.91-1.288-1.361-1.898c-0.449-0.611-0.887-1.186-1.311-1.727
                  c-0.424-0.541-0.817-1.018-1.177-1.428v10.435h-1.833V51.162h1.485c0.606,0.641,1.251,1.393,1.939,2.247
                  c0.688,0.854,1.37,1.735,2.045,2.642c0.675,0.907,1.312,1.796,1.909,2.671c0.598,0.876,1.103,1.654,1.515,2.336v-9.896h1.833v13.366
                  H128.401z"></path>
               <path fill="#E3000A" d="M132.741,57.836c0-1.144,0.17-2.153,0.511-3.028c0.34-0.875,0.803-1.605,1.389-2.191
                  c0.585-0.585,1.268-1.024,2.045-1.321c0.778-0.295,1.604-0.443,2.479-0.443c0.861,0,1.675,0.148,2.44,0.443
                  c0.766,0.297,1.438,0.736,2.017,1.321c0.578,0.586,1.037,1.316,1.379,2.191c0.34,0.875,0.511,1.885,0.511,3.028
                  S145.34,59.99,145,60.865c-0.342,0.873-0.801,1.603-1.379,2.188c-0.579,0.585-1.251,1.024-2.017,1.32s-1.579,0.444-2.44,0.444
                  c-0.875,0-1.7-0.148-2.479-0.444c-0.777-0.296-1.46-0.735-2.045-1.32c-0.586-0.586-1.049-1.315-1.389-2.188
                  C132.911,59.99,132.741,58.979,132.741,57.836z M134.709,57.836c0,0.811,0.102,1.546,0.309,2.21
                  c0.204,0.661,0.498,1.223,0.877,1.688c0.38,0.462,0.844,0.818,1.389,1.068c0.547,0.252,1.161,0.377,1.844,0.377
                  c0.682,0,1.291-0.125,1.832-0.377c0.539-0.25,1-0.606,1.379-1.068c0.379-0.465,0.672-1.026,0.879-1.688
                  c0.203-0.664,0.307-1.399,0.307-2.21c0-0.81-0.104-1.547-0.307-2.208c-0.207-0.662-0.5-1.227-0.879-1.688
                  c-0.379-0.463-0.84-0.82-1.379-1.07c-0.541-0.253-1.15-0.377-1.832-0.377c-0.683,0-1.297,0.124-1.844,0.377
                  c-0.545,0.25-1.009,0.607-1.389,1.07c-0.379,0.462-0.673,1.026-0.877,1.688C134.811,56.289,134.709,57.026,134.709,57.836z"></path>
               <polygon fill="#E3000A" points="156.332,62.909 156.332,64.528 148.289,64.528 148.289,51.162 150.16,51.162 150.16,62.909 "></polygon>
               <path fill="#E3000A" d="M156.893,57.836c0-1.144,0.169-2.153,0.511-3.028c0.341-0.875,0.803-1.605,1.389-2.191
                  c0.585-0.585,1.267-1.024,2.045-1.321c0.777-0.295,1.604-0.443,2.479-0.443c0.86,0,1.675,0.148,2.439,0.443
                  c0.765,0.297,1.437,0.736,2.016,1.321c0.579,0.586,1.037,1.316,1.379,2.191c0.341,0.875,0.512,1.885,0.512,3.028
                  s-0.171,2.154-0.512,3.029c-0.342,0.873-0.8,1.603-1.379,2.188c-0.579,0.585-1.251,1.024-2.016,1.32s-1.579,0.444-2.439,0.444
                  c-0.875,0-1.702-0.148-2.479-0.444c-0.778-0.296-1.46-0.735-2.045-1.32c-0.586-0.586-1.048-1.315-1.389-2.188
                  C157.062,59.99,156.893,58.979,156.893,57.836z M158.859,57.836c0,0.811,0.104,1.546,0.309,2.21
                  c0.206,0.661,0.499,1.223,0.879,1.688c0.379,0.462,0.84,0.818,1.388,1.068c0.546,0.252,1.16,0.377,1.843,0.377
                  c0.68,0,1.291-0.125,1.832-0.377c0.54-0.25,0.999-0.606,1.379-1.068c0.381-0.465,0.674-1.026,0.877-1.688
                  c0.207-0.664,0.31-1.399,0.31-2.21c0-0.81-0.103-1.547-0.31-2.208c-0.203-0.662-0.496-1.227-0.877-1.688
                  c-0.38-0.463-0.839-0.82-1.379-1.07c-0.541-0.253-1.152-0.377-1.832-0.377c-0.683,0-1.297,0.124-1.843,0.377
                  c-0.548,0.25-1.009,0.607-1.388,1.07c-0.38,0.462-0.673,1.026-0.879,1.688C158.963,56.289,158.859,57.026,158.859,57.836z"></path>
               <path fill="#E3000A" d="M180.599,57.95h1.873v6.251c-0.155,0.051-0.378,0.109-0.667,0.173c-0.288,0.065-0.623,0.13-1.002,0.192
                  c-0.381,0.065-0.795,0.12-1.244,0.165c-0.45,0.045-0.908,0.069-1.37,0.069c-0.939,0-1.794-0.155-2.565-0.464
                  s-1.436-0.759-1.986-1.353c-0.554-0.589-0.981-1.316-1.283-2.178c-0.303-0.864-0.453-1.853-0.453-2.971
                  c0-1.119,0.168-2.111,0.51-2.979c0.342-0.869,0.801-1.599,1.379-2.191c0.58-0.591,1.258-1.041,2.035-1.351
                  c0.779-0.309,1.611-0.463,2.499-0.463c0.604,0,1.142,0.039,1.61,0.117c0.471,0.076,0.871,0.166,1.206,0.27
                  c0.333,0.103,0.608,0.206,0.82,0.309c0.212,0.104,0.356,0.18,0.435,0.23l-0.598,1.563c-0.375-0.245-0.869-0.448-1.486-0.607
                  c-0.617-0.161-1.248-0.241-1.891-0.241c-0.682,0-1.302,0.123-1.861,0.365c-0.561,0.244-1.036,0.6-1.427,1.062
                  c-0.393,0.464-0.699,1.027-0.917,1.688c-0.22,0.662-0.328,1.405-0.328,2.229c0,0.797,0.094,1.524,0.28,2.181
                  s0.469,1.218,0.848,1.686c0.379,0.472,0.85,0.832,1.408,1.091c0.56,0.258,1.218,0.386,1.978,0.386c0.539,0,1-0.028,1.381-0.087
                  c0.378-0.059,0.65-0.112,0.817-0.164V57.95z"></path>
               <rect x="185.403" y="51.162" fill="#E3000A" width="1.87" height="13.366"></rect>
               <polygon fill="#E3000A" points="190.592,64.528 190.592,51.162 198.75,51.162 198.75,52.762 192.463,52.762 192.463,56.736 
                  198.058,56.736 198.058,58.298 192.463,58.298 192.463,62.928 199.234,62.928 199.234,64.528 "></polygon>
               <path fill="#E3000A" d="M205.156,51.027c1.878,0,3.32,0.355,4.331,1.069c1.009,0.713,1.513,1.777,1.513,3.192
                  c0,0.773-0.137,1.431-0.414,1.979c-0.275,0.545-0.675,0.989-1.195,1.33c-0.521,0.341-1.154,0.585-1.9,0.741
                  c-0.746,0.154-1.589,0.232-2.527,0.232h-1.485v4.956h-1.87V51.354c0.526-0.131,1.115-0.216,1.764-0.262
                  C204.021,51.049,204.615,51.027,205.156,51.027z M205.311,52.665c-0.799,0-1.408,0.021-1.833,0.059v5.248h1.409
                  c0.641,0,1.221-0.043,1.735-0.126c0.515-0.084,0.948-0.226,1.302-0.427c0.354-0.198,0.627-0.47,0.82-0.818
                  c0.191-0.346,0.289-0.79,0.289-1.331c0-0.515-0.1-0.938-0.299-1.274c-0.199-0.332-0.471-0.601-0.811-0.799
                  c-0.34-0.2-0.736-0.339-1.186-0.415C206.287,52.705,205.811,52.665,205.311,52.665z"></path>
               <path fill="#E3000A" d="M221.303,64.528c-0.22-0.578-0.425-1.147-0.618-1.706c-0.192-0.559-0.393-1.13-0.598-1.708h-6.058
                  l-1.215,3.414h-1.949c0.516-1.414,0.997-2.721,1.447-3.925c0.45-1.201,0.891-2.343,1.322-3.426c0.43-1.078,0.857-2.109,1.281-3.094
                  c0.426-0.984,0.869-1.957,1.332-2.922h1.717c0.463,0.965,0.906,1.938,1.33,2.922c0.425,0.984,0.852,2.016,1.283,3.094
                  c0.432,1.083,0.872,2.225,1.322,3.426c0.451,1.204,0.933,2.511,1.446,3.925H221.303z M219.546,59.572
                  c-0.411-1.118-0.819-2.201-1.225-3.25s-0.827-2.056-1.264-3.021c-0.45,0.965-0.877,1.972-1.281,3.021
                  c-0.407,1.049-0.808,2.132-1.208,3.25H219.546z"></path>
               <path fill="#E3000A" d="M231.698,58.937c0.206,0.256,0.466,0.594,0.782,1.013c0.314,0.416,0.639,0.882,0.975,1.388
                  c0.334,0.508,0.664,1.038,0.993,1.591c0.327,0.554,0.607,1.088,0.839,1.601h-2.045c-0.258-0.487-0.537-0.982-0.84-1.485
                  c-0.302-0.503-0.607-0.979-0.916-1.436c-0.308-0.457-0.614-0.886-0.916-1.285c-0.301-0.396-0.576-0.744-0.82-1.041
                  c-0.168,0.013-0.337,0.02-0.512,0.02c-0.173,0-0.35,0-0.529,0h-1.679v5.228h-1.871V51.354c0.526-0.131,1.116-0.216,1.766-0.262
                  c0.649-0.044,1.245-0.065,1.784-0.065c1.877,0,3.308,0.353,4.292,1.059c0.984,0.71,1.476,1.764,1.476,3.163
                  c0,0.889-0.234,1.647-0.703,2.278C233.303,58.157,232.613,58.625,231.698,58.937z M228.863,52.665c-0.797,0-1.408,0.021-1.833,0.059
                  v5.033h1.331c0.644,0,1.221-0.031,1.736-0.097c0.515-0.062,0.949-0.186,1.303-0.364c0.353-0.179,0.627-0.435,0.819-0.763
                  c0.192-0.326,0.29-0.762,0.29-1.302c0-0.501-0.098-0.92-0.29-1.254s-0.454-0.598-0.782-0.79c-0.326-0.193-0.713-0.33-1.156-0.406
                  S229.365,52.665,228.863,52.665z"></path>
               <path fill="#E3000A" d="M247.189,51.162c-0.398,0.437-0.85,0.924-1.35,1.454c-0.502,0.534-1.026,1.082-1.573,1.641
                  c-0.548,0.559-1.089,1.109-1.63,1.65s-1.048,1.042-1.523,1.503c0.552,0.388,1.138,0.864,1.754,1.43
                  c0.619,0.564,1.223,1.171,1.814,1.812c0.592,0.643,1.148,1.3,1.668,1.968c0.521,0.669,0.955,1.307,1.303,1.909h-2.199
                  c-0.386-0.603-0.828-1.211-1.332-1.823c-0.501-0.609-1.031-1.195-1.591-1.753c-0.559-0.562-1.124-1.079-1.696-1.555
                  c-0.574-0.476-1.129-0.881-1.67-1.214v6.345h-1.872V51.162h1.872v5.902c0.451-0.425,0.945-0.903,1.486-1.437
                  c0.539-0.534,1.073-1.072,1.601-1.612c0.526-0.539,1.025-1.059,1.495-1.552c0.469-0.496,0.865-0.93,1.186-1.302H247.189z"></path>
               </svg>