<svg enable-background="new 0 0 303.5 95" height="5.9375em" viewBox="0 0 303.5 95" width="18.9688em" xmlns="http://www.w3.org/2000/svg"><path d="m31.561 35.609 8.342 4.815.121-.761c.153-.979.185-1.884.106-2.707z" fill="#bb4540"/><path d="m37.45 55.996-14.521 8.38 2.739 2.214c1.433 1.158 2.857 1.823 4.182 2.03.984-.536 1.958-1.365 2.872-2.494l3.889-4.811z" fill="#bb4540"/><path d="m17.171 78.366c-2.799-1.985-5.1-4.824-6.693-8.359l-10.336-8.357c.516 5.2 3.138 11.115 8.895 14.405 4.112 2.35 8.134 2.311 8.134 2.311z" fill="#bb4540"/><path d="m17.732 16.625c-3.055 0-6.017.765-8.696 2.319-6.723 3.901-8.325 10.666-8.672 12.844 0 0 1.223-.79 1.876-1.146.493-.904 1.071-1.769 1.734-2.587 3.455-4.274 8.606-6.577 14.485-6.577 1.217 0 2.467.098 3.736.299l1.779.279 2.693-1.038c.866-.331 1.73-.611 2.589-.834l-.96-.555c-3.462-2-7.075-3.004-10.564-3.004" fill="#bb4540"/><path d="m18.484 33.684c-2.243.002-3.969.749-5.017 2.044-.807 1-1.212 2.325-1.139 3.888l12.98-4.992-5.012-.789c-.634-.1-1.24-.151-1.812-.151" fill="#d28380"/><path d="m39.902 40.422-2.452 15.574 4.722-2.729c5.493-3.171 5.495-8.361 0-11.534z" fill="#d28380"/><path d="m20.633 62.52.697 1.812c.103.266.209.521.323.765.18-.092.361-.192.542-.295l.734-.425z" fill="#d28380"/><path d="m29.258 20.184c-.859.226-1.722.503-2.588.836l-2.694 1.036 11.724 1.847z" fill="#a50700"/><path d="m2.241 30.642c-.654.356-1.279.739-1.876 1.146-.163.91-.273 1.851-.326 2.814-.025.45-.037.906-.037 1.365l-.002 23.067c.001.892.051 1.762.142 2.616l10.336 8.356c-.19-.42-.37-.853-.538-1.293l-8.287-21.526c-2.265-5.892-2.027-11.761.588-16.545" fill="#a50700"/><path d="m40.129 36.958c.079.822.047 1.728-.108 2.706l-.119.761 2.271 1.31c5.494 3.172 5.493 8.363 0 11.534l-4.725 2.729-.837 5.319 10.615-13.128c3.986-4.932 2.124-9.777-4.143-10.764z" fill="#a50700"/><path d="m22.93 64.376-.733.425c-.182.104-.363.203-.543.295 1.3 2.812 3.309 4.262 5.48 4.262.89 0 1.809-.243 2.716-.737-1.324-.207-2.748-.872-4.18-2.03z" fill="#a50700"/><path d="m28.038 33.574-2.731 1.049 6.254.986z" fill="#f8bfc2"/><path d="m12.329 39.615-.121.048v16.044l8.425 6.812-7.585-19.716c-.44-1.139-.673-2.209-.719-3.188" fill="#f8bfc2"/><path d="m18.461 21.478c-5.88 0-11.031 2.303-14.486 6.577-.662.818-1.241 1.683-1.734 2.587.914-.5 1.883-.947 2.901-1.338l18.834-7.248-1.778-.279c-1.271-.201-2.52-.299-3.737-.299" fill="#ea4047"/><path d="m34.6 31.686c-1.073 0-2.265.234-3.546.728l-3.016 1.159 3.523 2.035 8.569 1.349c-.173-1.809-.882-3.219-2-4.123-.923-.746-2.123-1.148-3.53-1.148" fill="#ea4047"/><path d="m12.208 39.663-2.684 1.032c-5.919 2.276-6.727 7.405-1.793 11.394l4.478 3.618v-16.044z" fill="#ea4047"/><path d="m36.611 61.315-3.888 4.811c-.914 1.129-1.888 1.958-2.874 2.494.302.047.6.069.89.069 2.825 0 5.058-2.21 5.693-6.241z" fill="#ea4047"/><path d="m10.479 70.007c1.593 3.535 3.894 6.374 6.693 8.359.187.005.375.009.564.009 1.977 0 3.178-.273 3.178-.273-.995-.587-1.973-1.252-2.92-2.018z" fill="#ea4047"/><path d="m51.997 33.82c.47 2.424.51 5.03.085 7.744l-3.48 22.075c-.11.065-.215.137-.327.201 6.497-3.75 10.222-9.707 10.224-16.338 0-5.203-2.307-10.047-6.502-13.682 0 0-.021-.018 0 0z" fill="#ea4047"/><path d="m17.756 28.847c-3.282 0-5.549 2.615-5.549 7.12v3.696l.122-.048c-.073-1.562.332-2.888 1.139-3.888 1.047-1.297 2.773-2.042 5.017-2.042.572 0 1.178.049 1.813.149l5.012.789 2.729-1.049-5.844-3.372c-1.592-.921-3.1-1.355-4.439-1.355" fill="#f18084"/><path d="m12.207 55.707v3.327c0 3.173 1.124 5.405 2.933 6.452.762.438 1.646.668 2.618.668 1.186 0 2.503-.34 3.896-1.059-.114-.244-.221-.499-.323-.765l-.697-1.812z" fill="#f18084"/><g fill="#e3000a"><path d="m23.976 22.056-18.834 7.247c-1.019.392-1.987.839-2.901 1.338-2.614 4.784-2.853 10.654-.588 16.545l8.286 21.527c.169.44.349.873.539 1.293l7.515 6.077c.947.766 1.926 1.431 2.92 2.018.942-.161 1.886-.393 2.829-.695.006-.002.011-.002.018-.006.01-.002.022-.006.032-.009.019-.008.038-.012.058-.02.003-.002.005-.002.008-.004 1.493-.487 2.98-1.154 4.439-1.995l19.977-11.532c.112-.064.218-.136.329-.201l3.478-22.075c.425-2.714.387-5.32-.084-7.744-1.113-.971-2.352-1.865-3.722-2.658l-12.575-7.26zm-11.769 17.607v-3.696c0-4.505 2.267-7.12 5.549-7.12 1.339 0 2.847.436 4.438 1.354l5.844 3.372 3.016-1.16c1.28-.494 2.474-.728 3.546-.728 1.407 0 2.607.4 3.529 1.146 1.117.906 1.828 2.316 2 4.126l2.954.466c6.268.987 8.131 5.832 4.142 10.764l-10.614 13.128-.179 1.133c-.636 4.031-2.869 6.241-5.694 6.241-.289 0-.585-.022-.887-.069-.909.494-1.828.737-2.718.737-2.172 0-4.18-1.449-5.48-4.262-1.393.719-2.709 1.059-3.896 1.059-.972 0-1.855-.229-2.618-.668-1.81-1.047-2.933-3.279-2.933-6.452v-3.327l-4.476-3.618c-4.934-3.988-4.126-9.117 1.793-11.394z"/><path d="m81.173 31.268c.154.528.324 1.123.51 1.785.187.662.385 1.347.597 2.055.212.707.427 1.415.646 2.121.218.708.429 1.363.636 1.968.167-.656.338-1.369.514-2.141.174-.771.339-1.569.493-2.391.155-.823.308-1.643.456-2.459.149-.817.288-1.605.417-2.364h3.126c-.453 2.238-.974 4.507-1.562 6.809s-1.226 4.488-1.911 6.559h-2.753c-.449-1.235-.886-2.531-1.309-3.888-.424-1.356-.841-2.716-1.252-4.079-.413 1.363-.824 2.723-1.236 4.079-.413 1.357-.844 2.653-1.294 3.888h-2.751c-.686-2.071-1.321-4.257-1.909-6.559-.587-2.302-1.107-4.571-1.559-6.809h3.26c.129.759.272 1.547.427 2.364s.316 1.636.484 2.459c.167.822.34 1.62.514 2.391.174.772.352 1.485.533 2.141.232-.63.458-1.299.677-2.005.219-.708.433-1.415.638-2.123.206-.707.396-1.389.57-2.044.174-.657.331-1.242.474-1.756h2.564z"/><path d="m90.477 43.209v-13.368h9.027v2.527h-6.019v2.623h5.345v2.468h-5.345v3.223h6.463v2.527z"/><path d="m102.166 29.841h3.01v13.368h-3.01z"/><path d="m117.231 43.209c-.861-1.531-1.793-3.041-2.796-4.533-1.004-1.492-2.071-2.9-3.204-4.225v8.758h-2.97v-13.368h2.45c.424.424.893.946 1.409 1.562.514.617 1.038 1.277 1.571 1.977.535.702 1.064 1.428 1.592 2.181.527.751 1.021 1.475 1.485 2.169v-7.89h2.989v13.368h-2.526z"/><path d="m127.301 43.383c-.734 0-1.464-.024-2.19-.068-.727-.045-1.481-.151-2.267-.317v-12.964c.617-.116 1.292-.203 2.026-.26.732-.058 1.414-.087 2.045-.087.849 0 1.629.062 2.342.184.714.122 1.329.331 1.843.627.513.295.916.684 1.205 1.167.29.482.435 1.077.435 1.785 0 1.067-.516 1.909-1.544 2.525.85.323 1.428.759 1.736 1.313.309.552.463 1.175.463 1.871 0 1.401-.511 2.456-1.533 3.164-1.021.705-2.543 1.06-4.561 1.06zm-1.524-8.296h1.466c.925 0 1.587-.119 1.986-.357.399-.237.598-.621.598-1.147 0-.541-.205-.919-.617-1.137-.412-.219-1.016-.329-1.813-.329-.257 0-.533.003-.83.009-.294.007-.559.023-.79.049zm0 2.297v3.453c.218.025.457.045.713.057.258.013.541.019.849.019.899 0 1.627-.127 2.18-.386.554-.256.831-.732.831-1.427 0-.617-.232-1.058-.696-1.321-.462-.264-1.125-.395-1.987-.395z"/><path d="m135.808 43.209v-13.368h9.028v2.527h-6.02v2.623h5.344v2.468h-5.344v3.223h6.463v2.527z"/><path d="m151.414 29.686c2.006 0 3.543.358 4.609 1.071 1.068.713 1.602 1.823 1.602 3.328 0 .938-.215 1.7-.647 2.286-.429.585-1.05 1.043-1.86 1.378.27.334.553.717.849 1.148.296.432.588.881.878 1.351.289.47.569.958.839 1.466.271.508.521 1.006.752 1.495h-3.364c-.245-.437-.493-.88-.745-1.332-.252-.449-.51-.887-.774-1.311-.266-.425-.525-.826-.785-1.206-.258-.379-.516-.724-.773-1.032h-1.486v4.881h-3.008v-13.175c.656-.128 1.333-.218 2.035-.27.696-.051 1.325-.078 1.878-.078zm.172 2.567c-.217 0-.414.006-.588.019-.173.012-.337.026-.492.038v3.627h.85c1.131 0 1.94-.141 2.43-.424.489-.282.733-.764.733-1.447 0-.656-.248-1.122-.741-1.398-.497-.277-1.227-.415-2.192-.415z"/><path d="m166.537 32.156c-1.402 0-2.414.389-3.038 1.166-.624.778-.937 1.843-.937 3.193 0 .655.078 1.25.231 1.785.155.533.388.993.695 1.378s.694.684 1.157.896c.463.213 1.003.319 1.621.319.334 0 .619-.005.857-.019.236-.013.447-.038.628-.078v-4.648h3.01v6.617c-.36.142-.94.292-1.737.453-.799.161-1.781.241-2.952.241-1.003 0-1.913-.154-2.729-.462-.816-.31-1.513-.759-2.092-1.351-.578-.591-1.027-1.318-1.341-2.18-.316-.861-.474-1.845-.474-2.951 0-1.12.175-2.109.521-2.971.348-.861.822-1.591 1.428-2.189.604-.598 1.314-1.051 2.131-1.359.816-.31 1.688-.463 2.613-.463.631 0 1.2.042 1.708.125s.946.18 1.312.289c.367.109.67.221.907.338.238.115.407.205.511.269l-.867 2.412c-.413-.219-.885-.408-1.418-.569-.534-.161-1.116-.241-1.745-.241z"/><path d="m184.283 43.479c-2.174 0-3.828-.605-4.967-1.814-1.138-1.208-1.707-2.925-1.707-5.15 0-1.106.174-2.093.521-2.96.348-.868.823-1.602 1.429-2.2.604-.598 1.322-1.051 2.16-1.359.836-.31 1.742-.463 2.721-.463.564 0 1.078.042 1.543.125.462.083.867.18 1.213.289.35.109.639.221.869.338.23.115.399.205.502.269l-.869 2.431c-.411-.219-.891-.405-1.436-.56-.547-.154-1.168-.231-1.862-.231-.463 0-.917.077-1.36.231-.443.155-.836.403-1.176.744-.342.34-.615.78-.82 1.32-.205.541-.309 1.196-.309 1.967 0 .618.068 1.193.203 1.727s.353.994.655 1.38.698.691 1.187.916c.488.226 1.08.338 1.775.338.437 0 .829-.025 1.177-.077.347-.052.655-.113.926-.184s.508-.151.713-.242c.205-.089.393-.174.56-.25l.83 2.411c-.425.258-1.022.489-1.795.694-.773.207-1.666.31-2.683.31z"/><path d="m200.197 43.209c-.148-.464-.31-.942-.48-1.432-.172-.489-.342-.977-.512-1.463h-5.221c-.168.488-.338.977-.506 1.466-.172.491-.329.967-.477 1.428h-3.123c.502-1.44.979-2.772 1.432-3.993.451-1.222.893-2.373 1.324-3.454.433-1.08.858-2.105 1.277-3.075.419-.972.855-1.919 1.307-2.846h2.853c.438.927.872 1.875 1.298 2.846.426.97.855 1.996 1.289 3.075.433 1.081.875 2.231 1.328 3.454.451 1.221.93 2.553 1.434 3.993h-3.223zm-3.615-10.339c-.068.193-.166.458-.295.793-.131.334-.276.72-.441 1.158-.166.438-.351.92-.555 1.447-.203.526-.411 1.079-.622 1.656h3.823c-.205-.579-.404-1.134-.594-1.662-.193-.528-.375-1.01-.547-1.447-.173-.439-.324-.825-.455-1.158-.129-.336-.236-.597-.314-.787z"/><path d="m208.686 29.841c.232.424.498.949.802 1.572.304.625.619 1.299.948 2.026s.654 1.469.977 2.228c.322.759.625 1.473.91 2.141.283-.668.587-1.382.908-2.141.322-.759.647-1.501.977-2.228.329-.727.645-1.401.948-2.026.304-.623.571-1.148.802-1.572h2.74c.129.888.247 1.881.355 2.98.109 1.1.207 2.244.289 3.433.085 1.19.162 2.383.233 3.579.07 1.196.132 2.321.184 3.376h-2.933c-.039-1.299-.091-2.713-.154-4.244-.065-1.53-.162-3.074-.289-4.63-.232.54-.49 1.138-.775 1.794-.283.656-.563 1.311-.842 1.967-.277.655-.545 1.282-.803 1.88s-.477 1.109-.657 1.535h-2.103c-.182-.425-.4-.937-.658-1.535s-.525-1.225-.803-1.88c-.279-.656-.56-1.312-.842-1.967-.285-.657-.541-1.254-.774-1.794-.128 1.556-.226 3.1-.29 4.63-.063 1.53-.115 2.945-.154 4.244h-2.932c.051-1.055.113-2.18.182-3.376.072-1.196.148-2.389.232-3.579.084-1.189.18-2.333.291-3.433.108-1.099.229-2.093.355-2.98z"/><path d="m226.452 29.686c1.993 0 3.522.351 4.589 1.052 1.068.701 1.603 1.849 1.603 3.443 0 1.606-.54 2.768-1.62 3.481s-2.623 1.071-4.631 1.071h-.943v4.476h-3.01v-13.175c.656-.128 1.351-.218 2.083-.27.733-.051 1.375-.078 1.929-.078zm.193 2.567c-.219 0-.434.006-.646.019-.211.012-.395.026-.549.038v3.858h.943c1.043 0 1.826-.141 2.354-.424s.792-.81.792-1.582c0-.373-.068-.683-.203-.926-.135-.245-.328-.441-.58-.589-.25-.147-.557-.25-.916-.309-.36-.057-.758-.085-1.195-.085z"/><path d="m240.09 43.479c-.939 0-1.75-.132-2.43-.396-.683-.263-1.244-.63-1.689-1.099-.443-.469-.77-1.029-.983-1.679-.212-.649-.317-1.366-.317-2.151v-8.313h3.008v8.063c0 .541.062 1 .184 1.379.123.38.29.688.502.926.213.238.469.408.772.51.302.104.633.155.993.155.733 0 1.328-.224 1.784-.675.456-.45.685-1.215.685-2.295v-8.063h3.01v8.313c0 .785-.111 1.505-.328 2.16-.22.657-.555 1.218-1.004 1.688-.45.47-1.021.833-1.717 1.091-.695.257-1.519.386-2.47.386z"/><path d="m252.145 40.913c.427 0 .775-.035 1.053-.106.276-.07.497-.167.665-.289.166-.123.282-.268.347-.435s.098-.353.098-.56c0-.438-.205-.8-.617-1.089s-1.118-.601-2.122-.936c-.437-.154-.874-.331-1.312-.531-.438-.199-.83-.449-1.178-.752-.346-.302-.631-.668-.849-1.099-.22-.431-.327-.955-.327-1.572 0-.616.115-1.174.346-1.668.232-.495.561-.916.985-1.264s.938-.614 1.542-.8c.605-.186 1.286-.279 2.045-.279.9 0 1.679.096 2.336.289.654.193 1.195.405 1.619.636l-.869 2.374c-.372-.193-.787-.365-1.243-.512-.457-.147-1.007-.222-1.649-.222-.721 0-1.238.1-1.553.3-.314.198-.473.504-.473.916 0 .245.057.451.174.618.115.167.279.317.49.454.213.134.459.256.734.366.275.109.581.221.917.337.694.258 1.299.512 1.813.763.514.25.941.543 1.282.877.341.335.593.727.762 1.177.165.451.251.997.251 1.641 0 1.247-.438 2.215-1.312 2.902-.874.688-2.191 1.033-3.955 1.033-.59 0-1.124-.036-1.6-.107s-.896-.158-1.264-.26c-.366-.103-.682-.212-.945-.329-.264-.115-.486-.224-.665-.328l.849-2.392c.398.219.891.414 1.475.589.584.171 1.302.258 2.15.258z"/><path d="m81.237 51.162v1.619h-4.205v11.747h-1.872v-11.747h-4.205v-1.619z"/><path d="m83.204 64.528v-13.366h8.159v1.6h-6.288v3.974h5.595v1.562h-5.595v4.63h6.77v1.6z"/><path d="m99.427 64.818c-.938 0-1.794-.155-2.565-.462-.772-.31-1.435-.761-1.987-1.352-.553-.592-.981-1.319-1.282-2.19-.303-.865-.454-1.86-.454-2.979s.17-2.111.511-2.979c.341-.869.801-1.599 1.379-2.191.579-.591 1.254-1.041 2.025-1.351.771-.309 1.595-.463 2.469-.463.554 0 1.052.039 1.495.117.444.076.831.166 1.158.27.328.103.595.206.8.309.206.104.348.18.425.23l-.539 1.542c-.117-.075-.284-.158-.503-.248s-.466-.181-.742-.27c-.277-.09-.579-.165-.907-.224-.329-.058-.659-.086-.994-.086-.707 0-1.344.123-1.909.365-.566.244-1.049.6-1.447 1.062-.399.464-.704 1.027-.917 1.688-.212.662-.318 1.405-.318 2.229 0 .797.093 1.524.279 2.181s.465 1.218.839 1.686c.374.472.839.832 1.397 1.091.561.258 1.213.386 1.959.386.861 0 1.575-.088 2.141-.27.565-.183.99-.341 1.273-.481l.482 1.541c-.09.067-.25.146-.482.241-.232.098-.521.191-.868.28-.347.09-.753.166-1.215.231-.461.066-.963.097-1.503.097z"/><path d="m114.049 51.162h1.871v13.366h-1.871v-6.171h-6.538v6.171h-1.872v-13.366h1.872v5.574h6.538z"/><path d="m128.401 64.528c-.285-.476-.608-1.009-.975-1.601-.368-.591-.762-1.205-1.186-1.842-.425-.637-.866-1.281-1.322-1.939-.458-.654-.91-1.288-1.361-1.898-.449-.611-.887-1.186-1.311-1.727s-.817-1.018-1.177-1.428v10.435h-1.833v-13.366h1.485c.606.641 1.251 1.393 1.939 2.247s1.37 1.735 2.045 2.642 1.312 1.796 1.909 2.671c.598.876 1.103 1.654 1.515 2.336v-9.896h1.833v13.366z"/><path d="m132.741 57.836c0-1.144.17-2.153.511-3.028.34-.875.803-1.605 1.389-2.191.585-.585 1.268-1.024 2.045-1.321.778-.295 1.604-.443 2.479-.443.861 0 1.675.148 2.44.443.766.297 1.438.736 2.017 1.321.578.586 1.037 1.316 1.379 2.191.34.875.511 1.885.511 3.028s-.172 2.154-.512 3.029c-.342.873-.801 1.603-1.379 2.188-.579.585-1.251 1.024-2.017 1.32s-1.579.444-2.44.444c-.875 0-1.7-.148-2.479-.444-.777-.296-1.46-.735-2.045-1.32-.586-.586-1.049-1.315-1.389-2.188-.34-.875-.51-1.886-.51-3.029zm1.968 0c0 .811.102 1.546.309 2.21.204.661.498 1.223.877 1.688.38.462.844.818 1.389 1.068.547.252 1.161.377 1.844.377.682 0 1.291-.125 1.832-.377.539-.25 1-.606 1.379-1.068.379-.465.672-1.026.879-1.688.203-.664.307-1.399.307-2.21 0-.81-.104-1.547-.307-2.208-.207-.662-.5-1.227-.879-1.688-.379-.463-.84-.82-1.379-1.07-.541-.253-1.15-.377-1.832-.377-.683 0-1.297.124-1.844.377-.545.25-1.009.607-1.389 1.07-.379.462-.673 1.026-.877 1.688-.207.661-.309 1.398-.309 2.208z"/><path d="m156.332 62.909v1.619h-8.043v-13.366h1.871v11.747z"/><path d="m156.893 57.836c0-1.144.169-2.153.511-3.028.341-.875.803-1.605 1.389-2.191.585-.585 1.267-1.024 2.045-1.321.777-.295 1.604-.443 2.479-.443.86 0 1.675.148 2.439.443.765.297 1.437.736 2.016 1.321.579.586 1.037 1.316 1.379 2.191.341.875.512 1.885.512 3.028s-.171 2.154-.512 3.029c-.342.873-.8 1.603-1.379 2.188s-1.251 1.024-2.016 1.32-1.579.444-2.439.444c-.875 0-1.702-.148-2.479-.444-.778-.296-1.46-.735-2.045-1.32-.586-.586-1.048-1.315-1.389-2.188-.342-.875-.511-1.886-.511-3.029zm1.966 0c0 .811.104 1.546.309 2.21.206.661.499 1.223.879 1.688.379.462.84.818 1.388 1.068.546.252 1.16.377 1.843.377.68 0 1.291-.125 1.832-.377.54-.25.999-.606 1.379-1.068.381-.465.674-1.026.877-1.688.207-.664.31-1.399.31-2.21 0-.81-.103-1.547-.31-2.208-.203-.662-.496-1.227-.877-1.688-.38-.463-.839-.82-1.379-1.07-.541-.253-1.152-.377-1.832-.377-.683 0-1.297.124-1.843.377-.548.25-1.009.607-1.388 1.07-.38.462-.673 1.026-.879 1.688-.205.661-.309 1.398-.309 2.208z"/><path d="m180.599 57.95h1.873v6.251c-.155.051-.378.109-.667.173-.288.065-.623.13-1.002.192-.381.065-.795.12-1.244.165-.45.045-.908.069-1.37.069-.939 0-1.794-.155-2.565-.464s-1.436-.759-1.986-1.353c-.554-.589-.981-1.316-1.283-2.178-.303-.864-.453-1.853-.453-2.971 0-1.119.168-2.111.51-2.979.342-.869.801-1.599 1.379-2.191.58-.591 1.258-1.041 2.035-1.351.779-.309 1.611-.463 2.499-.463.604 0 1.142.039 1.61.117.471.076.871.166 1.206.27.333.103.608.206.82.309.212.104.356.18.435.23l-.598 1.563c-.375-.245-.869-.448-1.486-.607-.617-.161-1.248-.241-1.891-.241-.682 0-1.302.123-1.861.365-.561.244-1.036.6-1.427 1.062-.393.464-.699 1.027-.917 1.688-.22.662-.328 1.405-.328 2.229 0 .797.094 1.524.28 2.181s.469 1.218.848 1.686c.379.472.85.832 1.408 1.091.56.258 1.218.386 1.978.386.539 0 1-.028 1.381-.087.378-.059.65-.112.817-.164v-4.978z"/><path d="m185.403 51.162h1.87v13.366h-1.87z"/><path d="m190.592 64.528v-13.366h8.158v1.6h-6.287v3.974h5.595v1.562h-5.595v4.63h6.771v1.6z"/><path d="m205.156 51.027c1.878 0 3.32.355 4.331 1.069 1.009.713 1.513 1.777 1.513 3.192 0 .773-.137 1.431-.414 1.979-.275.545-.675.989-1.195 1.33-.521.341-1.154.585-1.9.741-.746.154-1.589.232-2.527.232h-1.485v4.956h-1.87v-13.172c.526-.131 1.115-.216 1.764-.262.648-.043 1.242-.065 1.783-.065zm.155 1.638c-.799 0-1.408.021-1.833.059v5.248h1.409c.641 0 1.221-.043 1.735-.126.515-.084.948-.226 1.302-.427.354-.198.627-.47.82-.818.191-.346.289-.79.289-1.331 0-.515-.1-.938-.299-1.274-.199-.332-.471-.601-.811-.799-.34-.2-.736-.339-1.186-.415-.45-.077-.926-.117-1.426-.117z"/><path d="m221.303 64.528c-.22-.578-.425-1.147-.618-1.706-.192-.559-.393-1.13-.598-1.708h-6.058l-1.215 3.414h-1.949c.516-1.414.997-2.721 1.447-3.925.45-1.201.891-2.343 1.322-3.426.43-1.078.857-2.109 1.281-3.094.426-.984.869-1.957 1.332-2.922h1.717c.463.965.906 1.938 1.33 2.922.425.984.852 2.016 1.283 3.094.432 1.083.872 2.225 1.322 3.426.451 1.204.933 2.511 1.446 3.925zm-1.757-4.956c-.411-1.118-.819-2.201-1.225-3.25s-.827-2.056-1.264-3.021c-.45.965-.877 1.972-1.281 3.021-.407 1.049-.808 2.132-1.208 3.25z"/><path d="m231.698 58.937c.206.256.466.594.782 1.013.314.416.639.882.975 1.388.334.508.664 1.038.993 1.591.327.554.607 1.088.839 1.601h-2.045c-.258-.487-.537-.982-.84-1.485-.302-.503-.607-.979-.916-1.436-.308-.457-.614-.886-.916-1.285-.301-.396-.576-.744-.82-1.041-.168.013-.337.02-.512.02-.173 0-.35 0-.529 0h-1.679v5.228h-1.871v-13.177c.526-.131 1.116-.216 1.766-.262.649-.044 1.245-.065 1.784-.065 1.877 0 3.308.353 4.292 1.059.984.71 1.476 1.764 1.476 3.163 0 .889-.234 1.647-.703 2.278-.471.63-1.161 1.098-2.076 1.41zm-2.835-6.272c-.797 0-1.408.021-1.833.059v5.033h1.331c.644 0 1.221-.031 1.736-.097.515-.062.949-.186 1.303-.364.353-.179.627-.435.819-.763.192-.326.29-.762.29-1.302 0-.501-.098-.92-.29-1.254s-.454-.598-.782-.79c-.326-.193-.713-.33-1.156-.406s-.916-.116-1.418-.116z"/><path d="m247.189 51.162c-.398.437-.85.924-1.35 1.454-.502.534-1.026 1.082-1.573 1.641-.548.559-1.089 1.109-1.63 1.65s-1.048 1.042-1.523 1.503c.552.388 1.138.864 1.754 1.43.619.564 1.223 1.171 1.814 1.812.592.643 1.148 1.3 1.668 1.968.521.669.955 1.307 1.303 1.909h-2.199c-.386-.603-.828-1.211-1.332-1.823-.501-.609-1.031-1.195-1.591-1.753-.559-.562-1.124-1.079-1.696-1.555-.574-.476-1.129-.881-1.67-1.214v6.345h-1.872v-13.367h1.872v5.902c.451-.425.945-.903 1.486-1.437.539-.534 1.073-1.072 1.601-1.612.526-.539 1.025-1.059 1.495-1.552.469-.496.865-.93 1.186-1.302h2.257z"/></g></svg>