<svg clip-rule="evenodd" fill-rule="evenodd" stroke-linejoin="round" stroke-miterlimit="2" viewBox="0 0 320 72" xmlns="http://www.w3.org/2000/svg"><g fill-rule="nonzero"><path d="m0 .545h56.692v56.694h-56.692z" fill="#231f20"/><g fill="#fff"><path d="m24.065 16.689 4.282-4.281 4.282 4.281 2.368-2.369-4.28-4.282 4.28-4.28-2.368-2.37-4.282 4.28-4.282-4.28-2.369 2.37 4.282 4.28-4.282 4.282z"/><path d="m24.065 32.445 4.282-4.281 4.282 4.281 2.368-2.368-4.28-4.284 4.28-4.279-2.368-2.371-4.282 4.281-4.282-4.281-2.369 2.371 4.282 4.279-4.282 4.284z"/><path d="m24.065 54.373 4.282-4.281 4.282 4.281 2.368-2.369-4.28-4.282 4.28-4.28-2.368-2.369-4.282 4.28-4.282-4.28-2.369 2.369 4.282 4.28-4.282 4.282z"/><path d="m41.232 16.626-4.925.227s.703 5.201.405 10.455c-.286 5.017-1.077 5.898-1.077 5.898-1.113 2.089-4.558 2.598-6.32 2.734-1.768.139-2.557.043-2.557.043s-5.083-.195-6.223-2.563c-.65-1.348-.787-3.996-.787-3.996s-.03-12.406-.075-12.686c-.028-.15-1.028.11-2.187.103-.943-.003-2.322-.065-2.322-.065l.408 9.114-.055 5.386s0 2.889.741 4.042c1.251 1.956 2.644 2.655 3.434 3.025.789.375 2.044.748 3.437 1.027 1.393.281 3.719.423 6.782-.362 3.066-.79 4.422-2.179 4.422-2.179l2.323-2.184-.007 5.161 4.88-1.436s-.644-4.09-.637-11.059c.007-6.97.34-10.685.34-10.685z"/></g><path d="m75.09 5.835c0-3.089-1.879-3.089-4.03-3.089l-.194-.161v-.663c0-.429.273-.469.703-.469 1.017 0 3.521.198 5.36.198 1.952 0 3.945-.198 5.9-.198l.119.117v1.015l-.195.161h-.466c-2.544 0-3.679.27-3.679 3.206v11.339c0 5.631 1.098 10.051 7.82 10.051 7.002 0 9.266-3.365 9.266-9.974v-10.167c0-4.455 0-4.147-3.437-4.455l-.158-.314v-.745l.119-.234c.702 0 1.485.198 4.416.198 1.646 0 3.717-.198 4.969-.198l.155.234v.821l-.237.238c-2.848 0-3.87.156-3.87 2.108v13.959c0 7.162-4.182 10.795-11.299 10.795-5.67 0-11.262-1.992-11.262-8.524v-15.249z"/><path d="m103.991 11.931c0-.588-.028-.736-.146-.966-.261-.503-1.553-1.554-2.048-1.586l-1.555-.087c-.118 0-.148-.292-.148-.524 0-.154 0-.383.148-.383.91 0 1.61-.061 2.34-.061 1.351 0 3.491.118 4.016.179l8.881 10.722c1.346 1.639 2.666 3.164 4.776 5.277h.116v-12.894c0-1.934-.703-2.229-1.643-2.255l-1.257-.061c-.119 0-.179-.292-.179-.494 0-.184.088-.474.266-.474.643 0 2.168.149 3.603.149 1.32 0 2.727-.149 3.546-.149.148 0 .176.118.176.238v.554c0 .145-.061.176-.263.176h-.761c-2.021 0-2.021 1.026-2.021 3.518v16.966h-.705l-15.824-18.079v13.45c0 2.517.354 2.807 2.872 2.9.116 0 .205.264.205.494 0 .237-.029.471-.117.471-.557 0-2.429-.146-3.66-.146-1.438 0-2.085.146-3.427.146-.18 0-.21-.205-.21-.584 0-.265.03-.381.385-.381 1.225 0 2.634-.291 2.634-1.789z"/><path d="m132.57 23.592c0 4.276.088 4.305 2.96 4.455l.148.207v.553c0 .176-.441.205-.704.205-.411 0-2.374-.146-3.574-.146-1.406 0-2.844.146-4.366.146-.117-.06-.145-.234-.145-.529.028-.377.087-.436.935-.436 2.023 0 2.11-.441 2.11-2.67v-14.004c0-1.67-.497-2.081-2.958-2.081l-.087-.144-.058-.472c.028-.322.293-.353.468-.353.789 0 1.727.15 3.719.15 1.464 0 3.225-.15 4.395-.15l.146.21v.525l-.116.177-.791.057c-1.173.087-2.082.209-2.082 1.555z"/><path d="m139.607 10.287c-.322-.787-1.492-.995-2.316-.995l-.175-.144v-.763l.323-.061c1.231 0 3.019.148 3.665.148 1.345 0 2.663-.148 4.01-.148l.088.092-.088.82-1.376.118c-.468.024-.995.202-.995.639 0 .236.147.618.263.882l3.369 8.793 1.908 4.36c.203.439.232.529.321.529.058 0 .143-.121.261-.465l4.192-11.109c.468-1.257.82-2.345.79-2.696-.03-.496-.177-.759-1.025-.843l-1.523-.152-.177-.088v-.905c1.145 0 2.284.173 3.43.173.909 0 2.841-.173 3.047-.173l.233.117v.673l-.261.203-.912.062c-.587.024-.821.32-1.228 1.347-2.784 6.708-3.458 8.821-5.684 14.473l-1.495 3.809c-.144.412-.203.437-.41.437-.266 0-.323-.088-.38-.205z"/><path d="m162.529 11.312c0-1.901-1.436-2.108-3.136-2.108-.118 0-.118-.146-.118-.267v-.322c0-.261.5-.29 1.524-.29 1.173 0 2.491.148 3.723.148 1.168 0 2.344-.148 3.516-.148h6.182c.233 0 .262.267.262.586v3.575c0 .117-.058.233-.203.233-.234 0-.702.034-.734-.322l-.087-.905c-.18-1.874-1.467-2.2-3.107-2.2h-3.017c-1.644 0-2.168.354-2.168 2.581v5.301c0 .086.176.235.235.235l3.456-.118c1.757-.058 2.259-.617 2.697-2.169.058-.17.147-.233.466-.233.21 0 .357.03.357.177 0 .616-.177 1.964-.177 2.932 0 1.577.177 2.432.177 2.924 0 .18-.296.356-.472.356-.233 0-.44-.09-.498-.383-.145-.789-.145-1.354-.291-1.758-.15-.435-.502-.644-1.38-.67l-4.16-.092c-.41 0-.41.151-.41.352v6.977c0 2.107 1.555 2.164 3.575 2.164h1.582c1.552 0 2.636-.028 3.371-.463.645-.389 1.551-2.174 1.871-2.903.384 0 .883.086.883.291 0 .09-.085.325-.148.467l-.82 2.959c-.235.793-.381.793-.763.793-3.163 0-6.27-.146-10.518-.146-.966 0-3.428.146-4.924.146-.087 0-.176-.295-.176-.471 0-.23.06-.494.176-.494 2.555-.119 3.254-.383 3.254-3.078z"/><path d="m184.485 17.733c.383.029.73.056 1.112.056 2.346 0 5.276-.818 5.276-4.276 0-2.582-1.76-4.252-4.337-4.252-1.993 0-2.051.473-2.051 1.349zm-2.637-6.243c0-1.465-.061-2.198-1.905-2.198h-1.2c-.177 0-.203-.322-.203-.556 0-.144.086-.413.203-.413 1.696 0 3.429.093 5.127.093 1.345 0 2.666-.093 4.014-.093 2.989 0 5.919 1.994 5.919 5.071 0 2.665-2.433 4.454-4.718 4.806v.058c1.142.266 2.342 2.406 2.639 2.871l3.22 4.926c1.027 1.551 1.702 1.842 3.457 1.934l.177.174v.554c0 .266-.207.295-.322.295-.612 0-1.522-.086-1.964-.086-.701 0-1.406.086-2.109.086-.671 0-1.993-1.963-3.722-5.041-1.903-3.371-3.018-5.215-4.948-5.215-.238 0-.587 0-1.028.057v7.185c0 1.051 0 2.049 1.466 2.049 1.112 0 1.61 0 1.61.233 0 .556-.087.732-.527.732-1.521 0-2.783-.146-4.044-.146-.498 0-3.75.146-4.159.146-.177 0-.234-.381-.234-.615 0-.26.116-.32.706-.35 2.019-.093 2.545-.383 2.545-2.404z"/><path d="m203.219 18.346c-2.11-1.26-2.961-2.433-2.961-4.717 0-3.659 2.991-5.712 6.943-5.712 1.115 0 2.697.383 3.691.819l.204 3.662v.147c0 .148-.289.208-.701.208-.382 0-.437-.178-.466-.472-.208-1.963-1.613-3.223-3.696-3.223-1.991 0-3.541 1.404-3.541 3.285 0 2.105 1.284 2.929 4.215 4.478 2.902 1.525 5.423 2.873 5.423 6.537 0 3.984-3.605 6.062-7.265 6.062-1.203 0-3.196-.382-4.31-.845-.233-.123-.32-.498-.406-1.141l-.354-2.758c0-.176.587-.176.76-.176.088 0 .176.059.235.262.674 2.229 2.196 3.518 4.544 3.518 2.049 0 4.012-1.787 4.012-3.78 0-1.906-1.085-3.05-2.609-3.957z"/><path d="m220.513 23.592c0 4.276.087 4.305 2.959 4.455l.149.207v.553c0 .176-.442.205-.709.205-.407 0-2.37-.146-3.573-.146-1.407 0-2.839.146-4.363.146-.119-.06-.146-.234-.146-.529.027-.377.086-.436.935-.436 2.026 0 2.11-.441 2.11-2.67v-14.004c0-1.67-.498-2.081-2.959-2.081l-.086-.144-.06-.472c.029-.322.293-.353.468-.353.791 0 1.728.15 3.72.15 1.468 0 3.225-.15 4.399-.15l.145.21v.525l-.114.177-.798.057c-1.17.087-2.077.209-2.077 1.555z"/><path d="m236.074 25.881c0 2.164 1.466 2.164 3.283 2.164l.177.149v.467c0 .351-.147.351-.621.351-.585 0-2.02-.146-4.069-.146-1.61 0-4.128.146-4.836.146-.059-.203-.117-.351-.117-.529 0-.086.031-.262.117-.32l.297-.118h.351c2.667 0 2.784-.906 2.784-3.339v-13.888l-.087-1.347h-3.927c-2.228 0-2.582 1.404-3.136 3.282-.059.175-.177.261-.353.261-.408 0-.678-.12-.678-.294 0-.496.356-3.22.356-5.536 0-.118.413-.118.818-.118.938 1.258 1.234 1.258 2.495 1.258h10.897c2.052 0 2.637-.615 3.371-1.521.202 0 .876 0 .876.263 0 .236-.584 2.637-.645 4.749 0 .321-.089.938-.231.938-.264 0-.939-.15-.939-.3l-.117-1.461c-.114-1.492-.82-1.521-2.018-1.521h-4.048z"/><path d="m254.117 19.696c0-.297-.029-.678-.352-1.153l-6.611-8.938c-.176-.266-.441-.414-1.122-.442l-1.119-.062-.177-.087v-.766l.177-.089h.354c.501 0 3.659.147 4.216.147.74 0 1.922-.147 2.893-.147.648 0 .943 0 .943.179v.355c0 .291-.088.438-.175.438l-1.711.06c-.416 0-.681.175-.681.501 0 .12.175.414.476.793l4.216 5.877c.236.326.5.617.798.886.559-.535 3.158-4.105 4.426-5.961.472-.682.739-1.241.739-1.475 0-.413-.239-.588-1.095-.621l-1.478-.06c.034 0 0-.438 0-.559 0-.148.034-.324.181-.413 1.15.117 2.566.147 3.835.147.858 0 2.152-.147 2.537-.147l.178.117v.681l-.116.117-1.094.057c-.944.06-2.124 2.064-2.686 2.833l-4.894 6.7v6.93c0 .621.026 1.156.087 1.332.235.703 1.002 1.094 2.096 1.094h.794l.266.117v.824l-.147.03h-.445c-1.299 0-2.564-.151-3.864-.151-1.325 0-2.686.151-4.01.151h-.415l-.237-.061v-.502c0-.174.058-.383.295-.408l1.386-.152c.857-.088 1.536-.383 1.536-1.856z"/><path d="m137.819 58.959-4.348-11.209h-.082l-3.719 11.209zm-8.664 1.531-1.723 5.563c-.314 1.023-.467 1.92-.467 2.55 0 1.291 1.837 1.567 2.903 1.567.345 0 .429.232.429.746 0 .389-.045.551-.318.551-.897 0-3.76-.201-4.818-.201-1.055 0-2.703.201-3.883.201-.781 0-.781-.123-.781-.631v-.434c0-.193.347-.271 1.293-.351 2.039-.196 2.316-.586 3.062-2.746l7.758-22.571c.779-.662 1.603-1.57 2.578-1.882l9.844 24.81c.664 1.647 1.371 2.469 3.644 2.469.43 0 .508.471.508.9 0 .436-.269.436-.74.436-.637 0-3.141-.201-4.67-.201-1.566 0-3.137.078-4.701.201-.586 0-.627-.123-.627-.67 0-.428.234-.627.785-.627.592 0 2.508-.119 2.508-1.061 0-.312-.156-.939-.705-2.31l-2.508-6.309z"/><path d="m91.814 61.098c0-4.923-3.365-9.93-8.636-9.93-5.418 0-8.025 4.246-8.025 9.191 0 5.012 3.045 10.196 8.494 10.196 5.388 0 8.167-4.42 8.167-9.457zm-19.792.23c0-6.121 5.239-11.127 11.304-11.127 6.147 0 11.625 4.216 11.625 10.307 0 5.89-5.681 11.187-11.513 11.187-6.116 0-11.416-3.976-11.416-10.367z"/><path d="m98.533 53.894c0-1.784-.291-2.169-2.015-2.169h-.5c-.524.033-.758-.058-.758-.236 0-.235 0-.733.326-.733h12c.995 0 1.991-.143 3.016-.143.174 0 .412.03.412.264l.117 3.305c0 .205.032.413.032.618 0 .117-.235.172-.532.172h-.437c-.061-.347-.117-.701-.203-1.02l-.264-.909c-.32-1.145-1.172-1.318-2.082-1.318h-4.102c-2.168 0-2.373.67-2.373 2.813v5.153h4.34c2.514 0 3.131-.703 3.131-2.314.291-.064.586-.149.791-.149.117 0 .178.061.178.208 0 .229-.117.671-.117 2.81 0 .852.117 2.373.117 3.016 0 .263-.203.379-.529.379-.235 0-.323-.26-.44-.731-.203-1.201-.789-2.256-3.279-2.256h-4.192v7.676c0 1.141.155 1.756 1.647 1.875l1.521.115c.145 0 .2.18.2.377 0 .238 0 .588-.317.588-2.199 0-3.135-.144-4.512-.144-1.201 0-3.365.144-4.154.144-.241 0-.241-.293-.241-.521 0-.178.032-.444.153-.444l1.289-.086c1.547-.119 1.777-.468 1.777-2.195z"/><path d="m170.336 50.69c.911 0 1.85.085 2.791.085.739 0 1.498-.085 2.235-.085.439 0 .529.114.529.206v.468c0 .205-.09.353-.211.353-.203 0-.523-.06-.881-.06-1.707 0-1.707.853-1.707 2.765 0 1.675.326 12.67.326 14.287 0 .82.415 1.764 1.678 1.764 1.176 0 1.319.058 1.319.324 0 .353-.172.646-.26.646-1.561 0-2.791-.15-4.03-.15-1.232 0-2.498.15-3.761.15-.207 0-.235-.119-.235-.293v-.297c0-.293.266-.38 1.618-.38.589 0 1.115-.705 1.115-1.735 0-3.174-.115-10.023-.235-15.052-.119-.027-.087-.027-.087-.027-1.645 3.38-3.791 8.288-4.79 10.905l-2.771 7.262c-.021.086-.111.174-.262.174-.14 0-.263-.148-.349-.557-.174-.74-.44-1.443-.739-2.146l-5.554-13.525c-.207-.5-.381-.852-.494-.852-.125 0-.125.587-.125.913 0 2.323-.348 11.198-.348 12.642 0 1.261 0 1.998 2.588 1.998.174 0 .203.144.203.498 0 .117-.029.472-.147.472-.414 0-1.851-.15-3.441-.15-1.67 0-3.32.15-3.734.15-.086 0-.176-.09-.176-.238v-.439c0-.264.238-.293.59-.293 2.41 0 2.761-.737 2.761-3.295 0-1.44.497-12.258.497-13.316 0-1.558-.762-2.205-3.403-2.205-.09 0-.15-.144-.15-.323v-.381c0-.149.09-.263.238-.263 1.115 0 2.176.145 3.348.145.734 0 1.5-.145 2.236-.145.209 0 .414.471.557.852l6.351 15.196h.139z"/><path d="m180.967 60.742c-2.125-1.265-2.976-2.443-2.976-4.73 0-3.679 2.998-5.734 6.967-5.734 1.119 0 2.707.379 3.709.822l.205 3.676v.145c0 .148-.297.204-.711.204-.381 0-.436-.174-.467-.466-.205-1.97-1.617-3.238-3.705-3.238-1.996 0-3.555 1.41-3.555 3.296 0 2.114 1.295 2.937 4.233 4.496 2.914 1.529 5.441 2.879 5.441 6.555 0 4.001-3.621 6.084-7.291 6.084-1.207 0-3.209-.381-4.324-.852-.235-.117-.323-.5-.414-1.147l-.352-2.761c0-.176.59-.176.766-.176.093 0 .177.057.234.264.678 2.232 2.211 3.525 4.559 3.525 2.058 0 4.025-1.793 4.025-3.789 0-1.912-1.084-3.059-2.613-3.969z"/><path d="m202.375 68.373c0 2.178 1.467 2.178 3.292 2.178l.179.144v.471c0 .355-.148.355-.621.355-.586 0-2.023-.15-4.084-.15-1.617 0-4.146.15-4.849.15-.065-.209-.118-.355-.118-.529 0-.09.032-.265.118-.326l.296-.115h.352c2.676 0 2.793-.914 2.793-3.352v-13.935l-.09-1.351h-3.937c-2.237 0-2.592 1.41-3.149 3.291-.057.177-.176.265-.351.265-.416 0-.672-.118-.672-.292 0-.501.347-3.234.347-5.559 0-.116.412-.116.825-.116.941 1.266 1.232 1.266 2.496 1.266h10.933c2.061 0 2.651-.619 3.383-1.53.209 0 .883 0 .883.264 0 .237-.588 2.645-.647 4.764 0 .319-.091.938-.236.938-.266 0-.937-.144-.937-.292l-.118-1.472c-.121-1.497-.824-1.527-2.031-1.527h-4.057z"/><path d="m214.715 53.686c0-1.908-1.443-2.117-3.144-2.117-.117 0-.117-.148-.117-.263v-.324c0-.265.5-.292 1.527-.292 1.174 0 2.498.144 3.736.144 1.174 0 2.35-.144 3.522-.144h6.209c.23 0 .26.263.26.586v3.587c0 .118-.061.236-.208.236-.234 0-.705.026-.734-.323l-.09-.914c-.176-1.881-1.468-2.205-3.111-2.205h-3.031c-1.643 0-2.174.354-2.174 2.586v5.323c0 .086.176.237.24.237l3.463-.118c1.762-.062 2.268-.617 2.705-2.179.059-.175.149-.236.475-.236.203 0 .345.035.345.179 0 .619-.171 1.971-.171 2.94 0 1.588.171 2.439.171 2.939 0 .178-.289.354-.468.354-.233 0-.438-.088-.498-.385-.147-.789-.147-1.35-.291-1.76-.153-.441-.506-.648-1.387-.678l-4.172-.086c-.412 0-.412.143-.412.348v7.002c0 2.113 1.558 2.174 3.588 2.174h1.588c1.558 0 2.644-.031 3.379-.475.652-.379 1.558-2.17 1.878-2.906.387 0 .883.088.883.291 0 .092-.086.324-.144.473l-.824 2.968c-.235.795-.379.795-.764.795-3.176 0-6.293-.15-10.551-.15-.971 0-3.441.15-4.939.15-.09 0-.178-.293-.178-.472 0-.235.057-.498.178-.498 2.554-.12 3.261-.383 3.261-3.088z"/><path d="m235.813 60.123c.381.031.736.061 1.115.061 2.35 0 5.293-.825 5.293-4.294 0-2.584-1.763-4.262-4.349-4.262-2.002 0-2.059.47-2.059 1.353zm-2.646-6.261c0-1.467-.061-2.205-1.915-2.205h-1.207c-.173 0-.203-.322-.203-.558 0-.146.092-.409.203-.409 1.707 0 3.448.086 5.151.086 1.353 0 2.676-.086 4.025-.086 3 0 5.94 2 5.94 5.083 0 2.674-2.44 4.467-4.733 4.823v.056c1.147.264 2.354 2.412 2.645 2.879l3.234 4.942c1.024 1.56 1.703 1.853 3.471 1.941l.172.174v.562c0 .26-.205.293-.321.293-.621 0-1.533-.091-1.972-.091-.707 0-1.41.091-2.114.091-.677 0-2.001-1.97-3.734-5.056-1.91-3.383-3.031-5.235-4.973-5.235-.23 0-.586 0-1.023.061v7.203c0 1.057 0 2.057 1.471 2.057 1.111 0 1.617 0 1.617.232 0 .559-.086.738-.535.738-1.53 0-2.789-.15-4.055-.15-.496 0-3.756.15-4.172.15-.178 0-.236-.381-.236-.619 0-.264.115-.322.703-.351 2.027-.09 2.561-.383 2.561-2.414z"/><path d="m256.903 67.041c0 3.234 3.323 3.234 4.612 3.234 4.027 0 8.318-3.32 8.318-9.466 0-5.234-2.819-7.821-4.852-8.995-1.408-.617-3.262-.765-4.523-.765-2.409 0-3.555.174-3.555 2.06zm-2.651-13.113c0-1.115-.23-2.262-1.322-2.262-.351 0-1.289.118-1.849.118-.12 0-.12-.441-.12-.587 0-.177 0-.266.502-.38 1.973-.414 6.67-.736 9.196-.736 1.621 0 3.15.147 4.591.526 3.995 1.091 7.729 4.646 7.729 10.055 0 7.289-6.088 10.584-11.672 10.584-2.793 0-4.264-.119-5.726-.119-1.475 0-2.942.086-4.413.119-.117 0-.146-.264-.146-.473 0-.205.146-.498.264-.498.943-.119 1.701-.177 2.236-.531.439-.293.73-.766.73-1.703z"/><path d="m284.702 62.066-3.264-8.407h-.063l-2.783 8.407zm-6.5 1.145-1.289 4.174c-.241.763-.352 1.441-.352 1.912 0 .969 1.381 1.176 2.176 1.176.26 0 .32.175.32.556 0 .295-.031.414-.234.414-.678 0-2.821-.15-3.617-.15-.793 0-2.028.15-2.909.15-.588 0-.588-.09-.588-.472v-.323c0-.146.268-.209.971-.265 1.528-.147 1.733-.442 2.291-2.057l5.819-16.932c.585-.498 1.207-1.176 1.941-1.414l7.38 18.61c.504 1.232 1.033 1.849 2.734 1.849.326 0 .383.358.383.678 0 .326-.203.326-.557.326-.468 0-2.353-.15-3.5-.15-1.177 0-2.353.06-3.53.15-.439 0-.469-.09-.469-.504 0-.322.178-.466.586-.466.443 0 1.886-.09 1.886-.797 0-.233-.117-.703-.531-1.733l-1.88-4.732z"/><path d="m313.64 50.69c.914 0 1.854.085 2.795.085.731 0 1.5-.085 2.234-.085.44 0 .526.114.526.206v.468c0 .205-.086.353-.199.353-.209 0-.536-.06-.887-.06-1.701 0-1.701.853-1.701 2.765 0 1.675.32 12.67.32 14.287 0 .82.414 1.764 1.678 1.764 1.17 0 1.324.058 1.324.324 0 .353-.18.646-.268.646-1.56 0-2.791-.15-4.027-.15-1.234 0-2.498.15-3.766.15-.205 0-.232-.119-.232-.293v-.297c0-.293.264-.38 1.613-.38.59 0 1.116-.705 1.116-1.735 0-3.174-.112-10.023-.229-15.052-.117-.027-.092-.027-.092-.027-1.646 3.38-3.791 8.288-4.789 10.905l-2.762 7.262c-.031.086-.123.174-.265.174-.149 0-.264-.148-.356-.557-.173-.74-.439-1.443-.734-2.146l-5.555-13.525c-.207-.5-.381-.852-.498-.852s-.117.587-.117.913c0 2.323-.357 11.198-.357 12.642 0 1.261 0 1.998 2.588 1.998.179 0 .205.144.205.498 0 .117-.026.472-.149.472-.406 0-1.849-.15-3.437-.15-1.678 0-3.325.15-3.731.15-.088 0-.174-.09-.174-.238v-.439c0-.264.231-.293.58-.293 2.414 0 2.768-.737 2.768-3.295 0-1.44.5-12.258.5-13.316 0-1.558-.76-2.205-3.414-2.205-.082 0-.147-.144-.147-.323v-.381c0-.149.09-.263.239-.263 1.117 0 2.174.145 3.357.145.729 0 1.492-.145 2.227-.145.209 0 .412.471.56.852l6.348 15.196h.148z"/></g></svg>