<?xml version="1.0" encoding="UTF-8" standalone="no"?><!DOCTYPE svg PUBLIC "-//W3C//DTD SVG 1.1//EN" "http://www.w3.org/Graphics/SVG/1.1/DTD/svg11.dtd"><svg width="100%" height="100%" viewBox="0 0 320 72" version="1.1" xmlns="http://www.w3.org/2000/svg" xmlns:xlink="http://www.w3.org/1999/xlink" xml:space="preserve" xmlns:serif="http://www.serif.com/" style="fill-rule:evenodd;clip-rule:evenodd;stroke-linejoin:round;stroke-miterlimit:2;"><g><rect x="0" y="0.545" width="56.692" height="56.694" style="fill:#231f20;fill-rule:nonzero;"/><path d="M24.065,16.689l4.282,-4.281l4.282,4.281l2.368,-2.369l-4.28,-4.282l4.28,-4.28l-2.368,-2.37l-4.282,4.28l-4.282,-4.28l-2.369,2.37l4.282,4.28l-4.282,4.282l2.369,2.369Z" style="fill:#fff;fill-rule:nonzero;"/><path d="M24.065,32.445l4.282,-4.281l4.282,4.281l2.368,-2.368l-4.28,-4.284l4.28,-4.279l-2.368,-2.371l-4.282,4.281l-4.282,-4.281l-2.369,2.371l4.282,4.279l-4.282,4.284l2.369,2.368Z" style="fill:#fff;fill-rule:nonzero;"/><path d="M24.065,54.373l4.282,-4.281l4.282,4.281l2.368,-2.369l-4.28,-4.282l4.28,-4.28l-2.368,-2.369l-4.282,4.28l-4.282,-4.28l-2.369,2.369l4.282,4.28l-4.282,4.282l2.369,2.369Z" style="fill:#fff;fill-rule:nonzero;"/><path d="M41.232,16.626l-4.925,0.227c-0,0 0.703,5.201 0.405,10.455c-0.286,5.017 -1.077,5.898 -1.077,5.898c-1.113,2.089 -4.558,2.598 -6.32,2.734c-1.768,0.139 -2.557,0.043 -2.557,0.043c-0,0 -5.083,-0.195 -6.223,-2.563c-0.65,-1.348 -0.787,-3.996 -0.787,-3.996c-0,-0 -0.03,-12.406 -0.075,-12.686c-0.028,-0.15 -1.028,0.11 -2.187,0.103c-0.943,-0.003 -2.322,-0.065 -2.322,-0.065l0.408,9.114l-0.055,5.386c0,0 0,2.889 0.741,4.042c1.251,1.956 2.644,2.655 3.434,3.025c0.789,0.375 2.044,0.748 3.437,1.027c1.393,0.281 3.719,0.423 6.782,-0.362c3.066,-0.79 4.422,-2.179 4.422,-2.179l2.323,-2.184l-0.007,5.161l4.88,-1.436c-0,-0 -0.644,-4.09 -0.637,-11.059c0.007,-6.97 0.34,-10.685 0.34,-10.685Z" style="fill:#fff;fill-rule:nonzero;"/><path d="M75.09,5.835c-0,-3.089 -1.879,-3.089 -4.03,-3.089l-0.194,-0.161l-0,-0.663c-0,-0.429 0.273,-0.469 0.703,-0.469c1.017,0 3.521,0.198 5.36,0.198c1.952,0 3.945,-0.198 5.9,-0.198l0.119,0.117l-0,1.015l-0.195,0.161l-0.466,0c-2.544,0 -3.679,0.27 -3.679,3.206l0,11.339c0,5.631 1.098,10.051 7.82,10.051c7.002,-0 9.266,-3.365 9.266,-9.974l0,-10.167c0,-4.455 0,-4.147 -3.437,-4.455l-0.158,-0.314l-0,-0.745l0.119,-0.234c0.702,0 1.485,0.198 4.416,0.198c1.646,0 3.717,-0.198 4.969,-0.198l0.155,0.234l0,0.821l-0.237,0.238c-2.848,0 -3.87,0.156 -3.87,2.108l0,13.959c0,7.162 -4.182,10.795 -11.299,10.795c-5.67,0 -11.262,-1.992 -11.262,-8.524l-0,-15.249Z" style="fill-rule:nonzero;"/><path d="M103.991,11.931c-0,-0.588 -0.028,-0.736 -0.146,-0.966c-0.261,-0.503 -1.553,-1.554 -2.048,-1.586l-1.555,-0.087c-0.118,-0 -0.148,-0.292 -0.148,-0.524c0,-0.154 0,-0.383 0.148,-0.383c0.91,-0 1.61,-0.061 2.34,-0.061c1.351,0 3.491,0.118 4.016,0.179l8.881,10.722c1.346,1.639 2.666,3.164 4.776,5.277l0.116,-0l0,-12.894c0,-1.934 -0.703,-2.229 -1.643,-2.255l-1.257,-0.061c-0.119,-0 -0.179,-0.292 -0.179,-0.494c-0,-0.184 0.088,-0.474 0.266,-0.474c0.643,0 2.168,0.149 3.603,0.149c1.32,-0 2.727,-0.149 3.546,-0.149c0.148,0 0.176,0.118 0.176,0.238l0,0.554c0,0.145 -0.061,0.176 -0.263,0.176l-0.761,-0c-2.021,-0 -2.021,1.026 -2.021,3.518l-0,16.966l-0.705,0l-15.824,-18.079l-0,13.45c-0,2.517 0.354,2.807 2.872,2.9c0.116,0 0.205,0.264 0.205,0.494c0,0.237 -0.029,0.471 -0.117,0.471c-0.557,0 -2.429,-0.146 -3.66,-0.146c-1.438,0 -2.085,0.146 -3.427,0.146c-0.18,0 -0.21,-0.205 -0.21,-0.584c0,-0.265 0.03,-0.381 0.385,-0.381c1.225,0 2.634,-0.291 2.634,-1.789l-0,-14.327Z" style="fill-rule:nonzero;"/><path d="M132.57,23.592c0,4.276 0.088,4.305 2.96,4.455l0.148,0.207l-0,0.553c-0,0.176 -0.441,0.205 -0.704,0.205c-0.411,0 -2.374,-0.146 -3.574,-0.146c-1.406,0 -2.844,0.146 -4.366,0.146c-0.117,-0.06 -0.145,-0.234 -0.145,-0.529c0.028,-0.377 0.087,-0.436 0.935,-0.436c2.023,0 2.11,-0.441 2.11,-2.67l0,-14.004c0,-1.67 -0.497,-2.081 -2.958,-2.081l-0.087,-0.144l-0.058,-0.472c0.028,-0.322 0.293,-0.353 0.468,-0.353c0.789,0 1.727,0.15 3.719,0.15c1.464,-0 3.225,-0.15 4.395,-0.15l0.146,0.21l0,0.525l-0.116,0.177l-0.791,0.057c-1.173,0.087 -2.082,0.209 -2.082,1.555l0,12.745Z" style="fill-rule:nonzero;"/><path d="M139.607,10.287c-0.322,-0.787 -1.492,-0.995 -2.316,-0.995l-0.175,-0.144l-0,-0.763l0.323,-0.061c1.231,0 3.019,0.148 3.665,0.148c1.345,0 2.663,-0.148 4.01,-0.148l0.088,0.092l-0.088,0.82l-1.376,0.118c-0.468,0.024 -0.995,0.202 -0.995,0.639c-0,0.236 0.147,0.618 0.263,0.882l3.369,8.793l1.908,4.36c0.203,0.439 0.232,0.529 0.321,0.529c0.058,-0 0.143,-0.121 0.261,-0.465l4.192,-11.109c0.468,-1.257 0.82,-2.345 0.79,-2.696c-0.03,-0.496 -0.177,-0.759 -1.025,-0.843l-1.523,-0.152l-0.177,-0.088l-0,-0.905c1.145,-0 2.284,0.173 3.43,0.173c0.909,0 2.841,-0.173 3.047,-0.173l0.233,0.117l0,0.673l-0.261,0.203l-0.912,0.062c-0.587,0.024 -0.821,0.32 -1.228,1.347c-2.784,6.708 -3.458,8.821 -5.684,14.473l-1.495,3.809c-0.144,0.412 -0.203,0.437 -0.41,0.437c-0.266,-0 -0.323,-0.088 -0.38,-0.205l-7.855,-18.928Z" style="fill-rule:nonzero;"/><path d="M162.529,11.312c0,-1.901 -1.436,-2.108 -3.136,-2.108c-0.118,-0 -0.118,-0.146 -0.118,-0.267l-0,-0.322c-0,-0.261 0.5,-0.29 1.524,-0.29c1.173,0 2.491,0.148 3.723,0.148c1.168,-0 2.344,-0.148 3.516,-0.148l6.182,0c0.233,0 0.262,0.267 0.262,0.586l-0,3.575c-0,0.117 -0.058,0.233 -0.203,0.233c-0.234,0 -0.702,0.034 -0.734,-0.322l-0.087,-0.905c-0.18,-1.874 -1.467,-2.2 -3.107,-2.2l-3.017,-0c-1.644,-0 -2.168,0.354 -2.168,2.581l0,5.301c0,0.086 0.176,0.235 0.235,0.235l3.456,-0.118c1.757,-0.058 2.259,-0.617 2.697,-2.169c0.058,-0.17 0.147,-0.233 0.466,-0.233c0.21,-0 0.357,0.03 0.357,0.177c-0,0.616 -0.177,1.964 -0.177,2.932c-0,1.577 0.177,2.432 0.177,2.924c-0,0.18 -0.296,0.356 -0.472,0.356c-0.233,-0 -0.44,-0.09 -0.498,-0.383c-0.145,-0.789 -0.145,-1.354 -0.291,-1.758c-0.15,-0.435 -0.502,-0.644 -1.38,-0.67l-4.16,-0.092c-0.41,-0 -0.41,0.151 -0.41,0.352l0,6.977c0,2.107 1.555,2.164 3.575,2.164l1.582,0c1.552,0 2.636,-0.028 3.371,-0.463c0.645,-0.389 1.551,-2.174 1.871,-2.903c0.384,-0 0.883,0.086 0.883,0.291c-0,0.09 -0.085,0.325 -0.148,0.467l-0.82,2.959c-0.235,0.793 -0.381,0.793 -0.763,0.793c-3.163,0 -6.27,-0.146 -10.518,-0.146c-0.966,0 -3.428,0.146 -4.924,0.146c-0.087,0 -0.176,-0.295 -0.176,-0.471c-0,-0.23 0.06,-0.494 0.176,-0.494c2.555,-0.119 3.254,-0.383 3.254,-3.078l0,-13.657Z" style="fill-rule:nonzero;"/><path d="M184.485,17.733c0.383,0.029 0.73,0.056 1.112,0.056c2.346,0 5.276,-0.818 5.276,-4.276c0,-2.582 -1.76,-4.252 -4.337,-4.252c-1.993,0 -2.051,0.473 -2.051,1.349l0,7.123Zm-2.637,-6.243c0,-1.465 -0.061,-2.198 -1.905,-2.198l-1.2,-0c-0.177,-0 -0.203,-0.322 -0.203,-0.556c-0,-0.144 0.086,-0.413 0.203,-0.413c1.696,0 3.429,0.093 5.127,0.093c1.345,0 2.666,-0.093 4.014,-0.093c2.989,0 5.919,1.994 5.919,5.071c-0,2.665 -2.433,4.454 -4.718,4.806l0,0.058c1.142,0.266 2.342,2.406 2.639,2.871l3.22,4.926c1.027,1.551 1.702,1.842 3.457,1.934l0.177,0.174l0,0.554c0,0.266 -0.207,0.295 -0.322,0.295c-0.612,0 -1.522,-0.086 -1.964,-0.086c-0.701,-0 -1.406,0.086 -2.109,0.086c-0.671,0 -1.993,-1.963 -3.722,-5.041c-1.903,-3.371 -3.018,-5.215 -4.948,-5.215c-0.238,0 -0.587,0 -1.028,0.057l0,7.185c0,1.051 0,2.049 1.466,2.049c1.112,0 1.61,0 1.61,0.233c0,0.556 -0.087,0.732 -0.527,0.732c-1.521,0 -2.783,-0.146 -4.044,-0.146c-0.498,0 -3.75,0.146 -4.159,0.146c-0.177,0 -0.234,-0.381 -0.234,-0.615c0,-0.26 0.116,-0.32 0.706,-0.35c2.019,-0.093 2.545,-0.383 2.545,-2.404l0,-14.153Z" style="fill-rule:nonzero;"/><path d="M203.219,18.346c-2.11,-1.26 -2.961,-2.433 -2.961,-4.717c-0,-3.659 2.991,-5.712 6.943,-5.712c1.115,-0 2.697,0.383 3.691,0.819l0.204,3.662l-0,0.147c-0,0.148 -0.289,0.208 -0.701,0.208c-0.382,-0 -0.437,-0.178 -0.466,-0.472c-0.208,-1.963 -1.613,-3.223 -3.696,-3.223c-1.991,-0 -3.541,1.404 -3.541,3.285c0,2.105 1.284,2.929 4.215,4.478c2.902,1.525 5.423,2.873 5.423,6.537c0,3.984 -3.605,6.062 -7.265,6.062c-1.203,-0 -3.196,-0.382 -4.31,-0.845c-0.233,-0.123 -0.32,-0.498 -0.406,-1.141l-0.354,-2.758c-0,-0.176 0.587,-0.176 0.76,-0.176c0.088,-0 0.176,0.059 0.235,0.262c0.674,2.229 2.196,3.518 4.544,3.518c2.049,-0 4.012,-1.787 4.012,-3.78c0,-1.906 -1.085,-3.05 -2.609,-3.957l-3.718,-2.197Z" style="fill-rule:nonzero;"/><path d="M220.513,23.592c0,4.276 0.087,4.305 2.959,4.455l0.149,0.207l0,0.553c0,0.176 -0.442,0.205 -0.709,0.205c-0.407,0 -2.37,-0.146 -3.573,-0.146c-1.407,0 -2.839,0.146 -4.363,0.146c-0.119,-0.06 -0.146,-0.234 -0.146,-0.529c0.027,-0.377 0.086,-0.436 0.935,-0.436c2.026,0 2.11,-0.441 2.11,-2.67l0,-14.004c0,-1.67 -0.498,-2.081 -2.959,-2.081l-0.086,-0.144l-0.06,-0.472c0.029,-0.322 0.293,-0.353 0.468,-0.353c0.791,0 1.728,0.15 3.72,0.15c1.468,-0 3.225,-0.15 4.399,-0.15l0.145,0.21l-0,0.525l-0.114,0.177l-0.798,0.057c-1.17,0.087 -2.077,0.209 -2.077,1.555l0,12.745Z" style="fill-rule:nonzero;"/><path d="M236.074,25.881c0,2.164 1.466,2.164 3.283,2.164l0.177,0.149l-0,0.467c-0,0.351 -0.147,0.351 -0.621,0.351c-0.585,0 -2.02,-0.146 -4.069,-0.146c-1.61,0 -4.128,0.146 -4.836,0.146c-0.059,-0.203 -0.117,-0.351 -0.117,-0.529c0,-0.086 0.031,-0.262 0.117,-0.32l0.297,-0.118l0.351,-0c2.667,-0 2.784,-0.906 2.784,-3.339l0,-13.888l-0.087,-1.347l-3.927,0c-2.228,0 -2.582,1.404 -3.136,3.282c-0.059,0.175 -0.177,0.261 -0.353,0.261c-0.408,-0 -0.678,-0.12 -0.678,-0.294c0,-0.496 0.356,-3.22 0.356,-5.536c0,-0.118 0.413,-0.118 0.818,-0.118c0.938,1.258 1.234,1.258 2.495,1.258l10.897,0c2.052,0 2.637,-0.615 3.371,-1.521c0.202,0 0.876,0 0.876,0.263c0,0.236 -0.584,2.637 -0.645,4.749c0,0.321 -0.089,0.938 -0.231,0.938c-0.264,-0 -0.939,-0.15 -0.939,-0.3l-0.117,-1.461c-0.114,-1.492 -0.82,-1.521 -2.018,-1.521l-4.048,0l0,16.41Z" style="fill-rule:nonzero;"/><path d="M254.117,19.696c0,-0.297 -0.029,-0.678 -0.352,-1.153l-6.611,-8.938c-0.176,-0.266 -0.441,-0.414 -1.122,-0.442l-1.119,-0.062l-0.177,-0.087l-0,-0.766l0.177,-0.089l0.354,0c0.501,0 3.659,0.147 4.216,0.147c0.74,-0 1.922,-0.147 2.893,-0.147c0.648,0 0.943,0 0.943,0.179l0,0.355c0,0.291 -0.088,0.438 -0.175,0.438l-1.711,0.06c-0.416,0 -0.681,0.175 -0.681,0.501c-0,0.12 0.175,0.414 0.476,0.793l4.216,5.877c0.236,0.326 0.5,0.617 0.798,0.886c0.559,-0.535 3.158,-4.105 4.426,-5.961c0.472,-0.682 0.739,-1.241 0.739,-1.475c0,-0.413 -0.239,-0.588 -1.095,-0.621l-1.478,-0.06c0.034,0 0,-0.438 0,-0.559c0,-0.148 0.034,-0.324 0.181,-0.413c1.15,0.117 2.566,0.147 3.835,0.147c0.858,-0 2.152,-0.147 2.537,-0.147l0.178,0.117l0,0.681l-0.116,0.117l-1.094,0.057c-0.944,0.06 -2.124,2.064 -2.686,2.833l-4.894,6.7l-0,6.93c-0,0.621 0.026,1.156 0.087,1.332c0.235,0.703 1.002,1.094 2.096,1.094l0.794,0l0.266,0.117l0,0.824l-0.147,0.03l-0.445,0c-1.299,0 -2.564,-0.151 -3.864,-0.151c-1.325,0 -2.686,0.151 -4.01,0.151l-0.415,0l-0.237,-0.061l-0,-0.502c-0,-0.174 0.058,-0.383 0.295,-0.408l1.386,-0.152c0.857,-0.088 1.536,-0.383 1.536,-1.856l0,-6.316Z" style="fill-rule:nonzero;"/><path d="M137.819,58.959l-4.348,-11.209l-0.082,-0l-3.719,11.209l8.149,-0Zm-8.664,1.531l-1.723,5.563c-0.314,1.023 -0.467,1.92 -0.467,2.55c-0,1.291 1.837,1.567 2.903,1.567c0.345,-0 0.429,0.232 0.429,0.746c-0,0.389 -0.045,0.551 -0.318,0.551c-0.897,0 -3.76,-0.201 -4.818,-0.201c-1.055,-0 -2.703,0.201 -3.883,0.201c-0.781,0 -0.781,-0.123 -0.781,-0.631l0,-0.434c0,-0.193 0.347,-0.271 1.293,-0.351c2.039,-0.196 2.316,-0.586 3.062,-2.746l7.758,-22.571c0.779,-0.662 1.603,-1.57 2.578,-1.882l9.844,24.81c0.664,1.647 1.371,2.469 3.644,2.469c0.43,0 0.508,0.471 0.508,0.9c0,0.436 -0.269,0.436 -0.74,0.436c-0.637,0 -3.141,-0.201 -4.67,-0.201c-1.566,-0 -3.137,0.078 -4.701,0.201c-0.586,0 -0.627,-0.123 -0.627,-0.67c-0,-0.428 0.234,-0.627 0.785,-0.627c0.592,-0 2.508,-0.119 2.508,-1.061c-0,-0.312 -0.156,-0.939 -0.705,-2.31l-2.508,-6.309l-9.371,-0Z" style="fill-rule:nonzero;"/><path d="M91.814,61.098c0,-4.923 -3.365,-9.93 -8.636,-9.93c-5.418,-0 -8.025,4.246 -8.025,9.191c-0,5.012 3.045,10.196 8.494,10.196c5.388,-0 8.167,-4.42 8.167,-9.457Zm-19.792,0.23c0,-6.121 5.239,-11.127 11.304,-11.127c6.147,0 11.625,4.216 11.625,10.307c-0,5.89 -5.681,11.187 -11.513,11.187c-6.116,-0 -11.416,-3.976 -11.416,-10.367Z" style="fill-rule:nonzero;"/><path d="M98.533,53.894c-0,-1.784 -0.291,-2.169 -2.015,-2.169l-0.5,0c-0.524,0.033 -0.758,-0.058 -0.758,-0.236c0,-0.235 0,-0.733 0.326,-0.733l12,0c0.995,0 1.991,-0.143 3.016,-0.143c0.174,0 0.412,0.03 0.412,0.264l0.117,3.305c-0,0.205 0.032,0.413 0.032,0.618c0,0.117 -0.235,0.172 -0.532,0.172l-0.437,0c-0.061,-0.347 -0.117,-0.701 -0.203,-1.02l-0.264,-0.909c-0.32,-1.145 -1.172,-1.318 -2.082,-1.318l-4.102,0c-2.168,0 -2.373,0.67 -2.373,2.813l-0,5.153l4.34,-0c2.514,-0 3.131,-0.703 3.131,-2.314c0.291,-0.064 0.586,-0.149 0.791,-0.149c0.117,-0 0.178,0.061 0.178,0.208c0,0.229 -0.117,0.671 -0.117,2.81c-0,0.852 0.117,2.373 0.117,3.016c0,0.263 -0.203,0.379 -0.529,0.379c-0.235,-0 -0.323,-0.26 -0.44,-0.731c-0.203,-1.201 -0.789,-2.256 -3.279,-2.256l-4.192,0l-0,7.676c-0,1.141 0.155,1.756 1.647,1.875l1.521,0.115c0.145,0 0.2,0.18 0.2,0.377c0,0.238 0,0.588 -0.317,0.588c-2.199,0 -3.135,-0.144 -4.512,-0.144c-1.201,-0 -3.365,0.144 -4.154,0.144c-0.241,0 -0.241,-0.293 -0.241,-0.521c0,-0.178 0.032,-0.444 0.153,-0.444l1.289,-0.086c1.547,-0.119 1.777,-0.468 1.777,-2.195l-0,-14.145Z" style="fill-rule:nonzero;"/><path d="M170.336,50.69c0.911,0 1.85,0.085 2.791,0.085c0.739,-0 1.498,-0.085 2.235,-0.085c0.439,0 0.529,0.114 0.529,0.206l0,0.468c0,0.205 -0.09,0.353 -0.211,0.353c-0.203,-0 -0.523,-0.06 -0.881,-0.06c-1.707,-0 -1.707,0.853 -1.707,2.765c-0,1.675 0.326,12.67 0.326,14.287c-0,0.82 0.415,1.764 1.678,1.764c1.176,0 1.319,0.058 1.319,0.324c-0,0.353 -0.172,0.646 -0.26,0.646c-1.561,0 -2.791,-0.15 -4.03,-0.15c-1.232,-0 -2.498,0.15 -3.761,0.15c-0.207,0 -0.235,-0.119 -0.235,-0.293l-0,-0.297c-0,-0.293 0.266,-0.38 1.618,-0.38c0.589,0 1.115,-0.705 1.115,-1.735c-0,-3.174 -0.115,-10.023 -0.235,-15.052c-0.119,-0.027 -0.087,-0.027 -0.087,-0.027c-1.645,3.38 -3.791,8.288 -4.79,10.905l-2.771,7.262c-0.021,0.086 -0.111,0.174 -0.262,0.174c-0.14,-0 -0.263,-0.148 -0.349,-0.557c-0.174,-0.74 -0.44,-1.443 -0.739,-2.146l-5.554,-13.525c-0.207,-0.5 -0.381,-0.852 -0.494,-0.852c-0.125,0 -0.125,0.587 -0.125,0.913c-0,2.323 -0.348,11.198 -0.348,12.642c0,1.261 0,1.998 2.588,1.998c0.174,0 0.203,0.144 0.203,0.498c0,0.117 -0.029,0.472 -0.147,0.472c-0.414,0 -1.851,-0.15 -3.441,-0.15c-1.67,-0 -3.32,0.15 -3.734,0.15c-0.086,0 -0.176,-0.09 -0.176,-0.238l0,-0.439c0,-0.264 0.238,-0.293 0.59,-0.293c2.41,0 2.761,-0.737 2.761,-3.295c-0,-1.44 0.497,-12.258 0.497,-13.316c-0,-1.558 -0.762,-2.205 -3.403,-2.205c-0.09,-0 -0.15,-0.144 -0.15,-0.323l-0,-0.381c-0,-0.149 0.09,-0.263 0.238,-0.263c1.115,0 2.176,0.145 3.348,0.145c0.734,-0 1.5,-0.145 2.236,-0.145c0.209,0 0.414,0.471 0.557,0.852l6.351,15.196l0.139,-0l6.771,-16.048Z" style="fill-rule:nonzero;"/><path d="M180.967,60.742c-2.125,-1.265 -2.976,-2.443 -2.976,-4.73c-0,-3.679 2.998,-5.734 6.967,-5.734c1.119,-0 2.707,0.379 3.709,0.822l0.205,3.676l-0,0.145c-0,0.148 -0.297,0.204 -0.711,0.204c-0.381,-0 -0.436,-0.174 -0.467,-0.466c-0.205,-1.97 -1.617,-3.238 -3.705,-3.238c-1.996,-0 -3.555,1.41 -3.555,3.296c0,2.114 1.295,2.937 4.233,4.496c2.914,1.529 5.441,2.879 5.441,6.555c0,4.001 -3.621,6.084 -7.291,6.084c-1.207,-0 -3.209,-0.381 -4.324,-0.852c-0.235,-0.117 -0.323,-0.5 -0.414,-1.147l-0.352,-2.761c0,-0.176 0.59,-0.176 0.766,-0.176c0.093,-0 0.177,0.057 0.234,0.264c0.678,2.232 2.211,3.525 4.559,3.525c2.058,0 4.025,-1.793 4.025,-3.789c0,-1.912 -1.084,-3.059 -2.613,-3.969l-3.731,-2.205Z" style="fill-rule:nonzero;"/><path d="M202.375,68.373c0,2.178 1.467,2.178 3.292,2.178l0.179,0.144l-0,0.471c-0,0.355 -0.148,0.355 -0.621,0.355c-0.586,-0 -2.023,-0.15 -4.084,-0.15c-1.617,-0 -4.146,0.15 -4.849,0.15c-0.065,-0.209 -0.118,-0.355 -0.118,-0.529c-0,-0.09 0.032,-0.265 0.118,-0.326l0.296,-0.115l0.352,-0c2.676,-0 2.793,-0.914 2.793,-3.352l0,-13.935l-0.09,-1.351l-3.937,0c-2.237,0 -2.592,1.41 -3.149,3.291c-0.057,0.177 -0.176,0.265 -0.351,0.265c-0.416,-0 -0.672,-0.118 -0.672,-0.292c-0,-0.501 0.347,-3.234 0.347,-5.559c-0,-0.116 0.412,-0.116 0.825,-0.116c0.941,1.266 1.232,1.266 2.496,1.266l10.933,-0c2.061,-0 2.651,-0.619 3.383,-1.53c0.209,0 0.883,0 0.883,0.264c0,0.237 -0.588,2.645 -0.647,4.764c-0,0.319 -0.091,0.938 -0.236,0.938c-0.266,0 -0.937,-0.144 -0.937,-0.292l-0.118,-1.472c-0.121,-1.497 -0.824,-1.527 -2.031,-1.527l-4.057,0l0,16.46Z" style="fill-rule:nonzero;"/><path d="M214.715,53.686c-0,-1.908 -1.443,-2.117 -3.144,-2.117c-0.117,0 -0.117,-0.148 -0.117,-0.263l-0,-0.324c-0,-0.265 0.5,-0.292 1.527,-0.292c1.174,0 2.498,0.144 3.736,0.144c1.174,-0 2.35,-0.144 3.522,-0.144l6.209,0c0.23,0 0.26,0.263 0.26,0.586l-0,3.587c-0,0.118 -0.061,0.236 -0.208,0.236c-0.234,0 -0.705,0.026 -0.734,-0.323l-0.09,-0.914c-0.176,-1.881 -1.468,-2.205 -3.111,-2.205l-3.031,-0c-1.643,-0 -2.174,0.354 -2.174,2.586l0,5.323c0,0.086 0.176,0.237 0.24,0.237l3.463,-0.118c1.762,-0.062 2.268,-0.617 2.705,-2.179c0.059,-0.175 0.149,-0.236 0.475,-0.236c0.203,0 0.345,0.035 0.345,0.179c-0,0.619 -0.171,1.971 -0.171,2.94c0,1.588 0.171,2.439 0.171,2.939c-0,0.178 -0.289,0.354 -0.468,0.354c-0.233,0 -0.438,-0.088 -0.498,-0.385c-0.147,-0.789 -0.147,-1.35 -0.291,-1.76c-0.153,-0.441 -0.506,-0.648 -1.387,-0.678l-4.172,-0.086c-0.412,-0 -0.412,0.143 -0.412,0.348l0,7.002c0,2.113 1.558,2.174 3.588,2.174l1.588,0c1.558,0 2.644,-0.031 3.379,-0.475c0.652,-0.379 1.558,-2.17 1.878,-2.906c0.387,-0 0.883,0.088 0.883,0.291c-0,0.092 -0.086,0.324 -0.144,0.473l-0.824,2.968c-0.235,0.795 -0.379,0.795 -0.764,0.795c-3.176,0 -6.293,-0.15 -10.551,-0.15c-0.971,-0 -3.441,0.15 -4.939,0.15c-0.09,0 -0.178,-0.293 -0.178,-0.472c0,-0.235 0.057,-0.498 0.178,-0.498c2.554,-0.12 3.261,-0.383 3.261,-3.088l-0,-13.699Z" style="fill-rule:nonzero;"/><path d="M235.813,60.123c0.381,0.031 0.736,0.061 1.115,0.061c2.35,0 5.293,-0.825 5.293,-4.294c-0,-2.584 -1.763,-4.262 -4.349,-4.262c-2.002,0 -2.059,0.47 -2.059,1.353l0,7.142Zm-2.646,-6.261c0,-1.467 -0.061,-2.205 -1.915,-2.205l-1.207,-0c-0.173,-0 -0.203,-0.322 -0.203,-0.558c-0,-0.146 0.092,-0.409 0.203,-0.409c1.707,0 3.448,0.086 5.151,0.086c1.353,-0 2.676,-0.086 4.025,-0.086c3,0 5.94,2 5.94,5.083c-0,2.674 -2.44,4.467 -4.733,4.823l-0,0.056c1.147,0.264 2.354,2.412 2.645,2.879l3.234,4.942c1.024,1.56 1.703,1.853 3.471,1.941l0.172,0.174l-0,0.562c-0,0.26 -0.205,0.293 -0.321,0.293c-0.621,0 -1.533,-0.091 -1.972,-0.091c-0.707,-0 -1.41,0.091 -2.114,0.091c-0.677,0 -2.001,-1.97 -3.734,-5.056c-1.91,-3.383 -3.031,-5.235 -4.973,-5.235c-0.23,0 -0.586,0 -1.023,0.061l0,7.203c0,1.057 0,2.057 1.471,2.057c1.111,0 1.617,0 1.617,0.232c0,0.559 -0.086,0.738 -0.535,0.738c-1.53,0 -2.789,-0.15 -4.055,-0.15c-0.496,-0 -3.756,0.15 -4.172,0.15c-0.178,0 -0.236,-0.381 -0.236,-0.619c-0,-0.264 0.115,-0.322 0.703,-0.351c2.027,-0.09 2.561,-0.383 2.561,-2.414l0,-14.197Z" style="fill-rule:nonzero;"/><path d="M256.903,67.041c0,3.234 3.323,3.234 4.612,3.234c4.027,-0 8.318,-3.32 8.318,-9.466c0,-5.234 -2.819,-7.821 -4.852,-8.995c-1.408,-0.617 -3.262,-0.765 -4.523,-0.765c-2.409,-0 -3.555,0.174 -3.555,2.06l0,13.932Zm-2.651,-13.113c-0,-1.115 -0.23,-2.262 -1.322,-2.262c-0.351,0 -1.289,0.118 -1.849,0.118c-0.12,0 -0.12,-0.441 -0.12,-0.587c-0,-0.177 -0,-0.266 0.502,-0.38c1.973,-0.414 6.67,-0.736 9.196,-0.736c1.621,-0 3.15,0.147 4.591,0.526c3.995,1.091 7.729,4.646 7.729,10.055c0,7.289 -6.088,10.584 -11.672,10.584c-2.793,-0 -4.264,-0.119 -5.726,-0.119c-1.475,-0 -2.942,0.086 -4.413,0.119c-0.117,-0 -0.146,-0.264 -0.146,-0.473c0,-0.205 0.146,-0.498 0.264,-0.498c0.943,-0.119 1.701,-0.177 2.236,-0.531c0.439,-0.293 0.73,-0.766 0.73,-1.703l-0,-14.113Z" style="fill-rule:nonzero;"/><path d="M284.702,62.066l-3.264,-8.407l-0.063,0l-2.783,8.407l6.11,-0Zm-6.5,1.145l-1.289,4.174c-0.241,0.763 -0.352,1.441 -0.352,1.912c0,0.969 1.381,1.176 2.176,1.176c0.26,0 0.32,0.175 0.32,0.556c0,0.295 -0.031,0.414 -0.234,0.414c-0.678,0 -2.821,-0.15 -3.617,-0.15c-0.793,-0 -2.028,0.15 -2.909,0.15c-0.588,0 -0.588,-0.09 -0.588,-0.472l0,-0.323c0,-0.146 0.268,-0.209 0.971,-0.265c1.528,-0.147 1.733,-0.442 2.291,-2.057l5.819,-16.932c0.585,-0.498 1.207,-1.176 1.941,-1.414l7.38,18.61c0.504,1.232 1.033,1.849 2.734,1.849c0.326,0 0.383,0.358 0.383,0.678c-0,0.326 -0.203,0.326 -0.557,0.326c-0.468,0 -2.353,-0.15 -3.5,-0.15c-1.177,-0 -2.353,0.06 -3.53,0.15c-0.439,0 -0.469,-0.09 -0.469,-0.504c-0,-0.322 0.178,-0.466 0.586,-0.466c0.443,0 1.886,-0.09 1.886,-0.797c0,-0.233 -0.117,-0.703 -0.531,-1.733l-1.88,-4.732l-7.031,0Z" style="fill-rule:nonzero;"/><path d="M313.64,50.69c0.914,0 1.854,0.085 2.795,0.085c0.731,-0 1.5,-0.085 2.234,-0.085c0.44,0 0.526,0.114 0.526,0.206l0,0.468c0,0.205 -0.086,0.353 -0.199,0.353c-0.209,-0 -0.536,-0.06 -0.887,-0.06c-1.701,-0 -1.701,0.853 -1.701,2.765c-0,1.675 0.32,12.67 0.32,14.287c-0,0.82 0.414,1.764 1.678,1.764c1.17,0 1.324,0.058 1.324,0.324c0,0.353 -0.18,0.646 -0.268,0.646c-1.56,0 -2.791,-0.15 -4.027,-0.15c-1.234,-0 -2.498,0.15 -3.766,0.15c-0.205,0 -0.232,-0.119 -0.232,-0.293l0,-0.297c0,-0.293 0.264,-0.38 1.613,-0.38c0.59,0 1.116,-0.705 1.116,-1.735c-0,-3.174 -0.112,-10.023 -0.229,-15.052c-0.117,-0.027 -0.092,-0.027 -0.092,-0.027c-1.646,3.38 -3.791,8.288 -4.789,10.905l-2.762,7.262c-0.031,0.086 -0.123,0.174 -0.265,0.174c-0.149,-0 -0.264,-0.148 -0.356,-0.557c-0.173,-0.74 -0.439,-1.443 -0.734,-2.146l-5.555,-13.525c-0.207,-0.5 -0.381,-0.852 -0.498,-0.852c-0.117,0 -0.117,0.587 -0.117,0.913c0,2.323 -0.357,11.198 -0.357,12.642c-0,1.261 -0,1.998 2.588,1.998c0.179,0 0.205,0.144 0.205,0.498c-0,0.117 -0.026,0.472 -0.149,0.472c-0.406,0 -1.849,-0.15 -3.437,-0.15c-1.678,-0 -3.325,0.15 -3.731,0.15c-0.088,0 -0.174,-0.09 -0.174,-0.238l-0,-0.439c-0,-0.264 0.231,-0.293 0.58,-0.293c2.414,0 2.768,-0.737 2.768,-3.295c0,-1.44 0.5,-12.258 0.5,-13.316c0,-1.558 -0.76,-2.205 -3.414,-2.205c-0.082,-0 -0.147,-0.144 -0.147,-0.323l0,-0.381c0,-0.149 0.09,-0.263 0.239,-0.263c1.117,0 2.174,0.145 3.357,0.145c0.729,-0 1.492,-0.145 2.227,-0.145c0.209,0 0.412,0.471 0.56,0.852l6.348,15.196l0.148,-0l6.76,-16.048Z" style="fill-rule:nonzero;"/></g></svg>